G04 #@! TF.FileFunction,Copper,L1,Top,Signal*
%FSLAX46Y46*%
G04 Gerber Fmt 4.6, Leading zero omitted, Abs format (unit mm)*
G04 Created by KiCad (PCBNEW 4.0.2-stable) date Tue Jun 28 19:39:02 2016*
%MOMM*%
G01*
G04 APERTURE LIST*
%ADD10C,0.100000*%
%ADD11R,1.000000X1.600000*%
%ADD12C,1.727200*%
%ADD13O,1.727200X1.727200*%
%ADD14R,1.900000X8.000000*%
%ADD15R,2.000000X7.500000*%
%ADD16C,0.500000*%
%ADD17C,0.200000*%
G04 APERTURE END LIST*
D10*
D11*
X159690000Y-105116000D03*
X162890000Y-105116000D03*
X159690000Y-100116000D03*
X162890000Y-100116000D03*
D12*
X166370000Y-106426000D03*
D13*
X166370000Y-103886000D03*
X166370000Y-101346000D03*
X166370000Y-98806000D03*
D12*
X156210000Y-106426000D03*
D13*
X156210000Y-103886000D03*
X156210000Y-101346000D03*
X156210000Y-98806000D03*
D14*
X157480000Y-92149000D03*
X165100000Y-92149000D03*
D15*
X162590000Y-92399000D03*
X159990000Y-92399000D03*
D16*
X161798000Y-100838000D03*
X162306000Y-98679000D03*
X161290000Y-103124000D03*
X162306000Y-103505000D03*
X162687000Y-101473000D03*
X159893000Y-101346000D03*
X161925000Y-105410000D03*
X160909000Y-102489000D03*
X160020000Y-97409000D03*
X161798000Y-102616000D03*
X162560000Y-97409000D03*
D17*
X162890000Y-100116000D02*
X162890000Y-100127000D01*
X162890000Y-100127000D02*
X162179000Y-100838000D01*
X162179000Y-100838000D02*
X161798000Y-100838000D01*
X160274000Y-102616000D02*
X160782000Y-103124000D01*
X160528000Y-102108000D02*
X160274000Y-102362000D01*
X160274000Y-102362000D02*
X160274000Y-102616000D01*
X160528000Y-99060000D02*
X160528000Y-100330000D01*
X160528000Y-99060000D02*
X157480000Y-96012000D01*
X160528000Y-100330000D02*
X160528000Y-102108000D01*
X160782000Y-103124000D02*
X161290000Y-103124000D01*
X157480000Y-92149000D02*
X157480000Y-96012000D01*
X162687000Y-101473000D02*
X162687000Y-102743000D01*
X162687000Y-103124000D02*
X162306000Y-103505000D01*
X162687000Y-102743000D02*
X162687000Y-103124000D01*
X162687000Y-101473000D02*
X163957000Y-101473000D01*
X163957000Y-101473000D02*
X166370000Y-103886000D01*
X159893000Y-101346000D02*
X159893000Y-103251000D01*
X163957000Y-104013000D02*
X166370000Y-106426000D01*
X160655000Y-104013000D02*
X163957000Y-104013000D01*
X159893000Y-103251000D02*
X160655000Y-104013000D01*
X162890000Y-105116000D02*
X162219000Y-105116000D01*
X162219000Y-105116000D02*
X161925000Y-105410000D01*
X160909000Y-98298000D02*
X160909000Y-100076000D01*
X160909000Y-98298000D02*
X159990000Y-97379000D01*
X160909000Y-102489000D02*
X160909000Y-100076000D01*
X160020000Y-97409000D02*
X159990000Y-97379000D01*
X159990000Y-92399000D02*
X159990000Y-97379000D01*
X161290000Y-102108000D02*
X161290000Y-100457000D01*
X161798000Y-102616000D02*
X161290000Y-102108000D01*
X162560000Y-97409000D02*
X162590000Y-97379000D01*
X162590000Y-92399000D02*
X162590000Y-97379000D01*
X161290000Y-98679000D02*
X161290000Y-100457000D01*
X161290000Y-100457000D02*
X161290000Y-100457000D01*
X162590000Y-97379000D02*
X161290000Y-98679000D01*
G36*
X166259874Y-87431448D02*
X166597174Y-87656824D01*
X166822552Y-87994126D01*
X166911000Y-88438784D01*
X166911000Y-97282000D01*
X166920127Y-97327885D01*
X166920127Y-97374669D01*
X166938030Y-97417891D01*
X166947157Y-97463775D01*
X166973149Y-97502675D01*
X166991052Y-97545896D01*
X167024132Y-97578976D01*
X167050124Y-97617876D01*
X167089024Y-97643868D01*
X167122104Y-97676948D01*
X167165325Y-97694851D01*
X167204225Y-97720843D01*
X167250111Y-97729970D01*
X167293332Y-97747873D01*
X167395065Y-97768109D01*
X167402754Y-97773246D01*
X167407891Y-97780935D01*
X167419000Y-97836783D01*
X167419000Y-98108174D01*
X167288255Y-97912500D01*
X166878314Y-97638586D01*
X166394755Y-97542400D01*
X166345245Y-97542400D01*
X165861686Y-97638586D01*
X165451745Y-97912500D01*
X165177831Y-98322441D01*
X165081645Y-98806000D01*
X165177831Y-99289559D01*
X165451745Y-99699500D01*
X165861686Y-99973414D01*
X166345245Y-100069600D01*
X166394755Y-100069600D01*
X166878314Y-99973414D01*
X167288255Y-99699500D01*
X167419000Y-99503826D01*
X167419000Y-100648174D01*
X167288255Y-100452500D01*
X166878314Y-100178586D01*
X166394755Y-100082400D01*
X166345245Y-100082400D01*
X165861686Y-100178586D01*
X165451745Y-100452500D01*
X165177831Y-100862441D01*
X165081645Y-101346000D01*
X165177831Y-101829559D01*
X165451745Y-102239500D01*
X165861686Y-102513414D01*
X166345245Y-102609600D01*
X166394755Y-102609600D01*
X166878314Y-102513414D01*
X167288255Y-102239500D01*
X167419000Y-102043826D01*
X167419000Y-103188174D01*
X167288255Y-102992500D01*
X166878314Y-102718586D01*
X166394755Y-102622400D01*
X166345245Y-102622400D01*
X165901728Y-102710621D01*
X164310553Y-101119447D01*
X164148342Y-101011060D01*
X163957000Y-100973000D01*
X163786293Y-100973000D01*
X163797836Y-100916000D01*
X163797836Y-99316000D01*
X163769944Y-99167769D01*
X163682340Y-99031628D01*
X163548671Y-98940296D01*
X163390000Y-98908164D01*
X162390000Y-98908164D01*
X162241769Y-98936056D01*
X162105628Y-99023660D01*
X162014296Y-99157329D01*
X161982164Y-99316000D01*
X161982164Y-100210662D01*
X161927860Y-100188113D01*
X161790000Y-100187993D01*
X161790000Y-98886106D01*
X162617057Y-98059050D01*
X162688726Y-98059112D01*
X162927714Y-97960364D01*
X163110722Y-97777676D01*
X163209887Y-97538860D01*
X163210112Y-97280274D01*
X163111364Y-97041286D01*
X163090000Y-97019885D01*
X163090000Y-96556836D01*
X163590000Y-96556836D01*
X163738231Y-96528944D01*
X163874372Y-96441340D01*
X163932704Y-96355968D01*
X163980063Y-96403328D01*
X164090326Y-96449000D01*
X164975000Y-96449000D01*
X165050000Y-96374000D01*
X165050000Y-92199000D01*
X165150000Y-92199000D01*
X165150000Y-96374000D01*
X165225000Y-96449000D01*
X166109674Y-96449000D01*
X166219937Y-96403328D01*
X166304328Y-96318936D01*
X166350000Y-96208673D01*
X166350000Y-92274000D01*
X166275000Y-92199000D01*
X165150000Y-92199000D01*
X165050000Y-92199000D01*
X165030000Y-92199000D01*
X165030000Y-92099000D01*
X165050000Y-92099000D01*
X165050000Y-87924000D01*
X165150000Y-87924000D01*
X165150000Y-92099000D01*
X166275000Y-92099000D01*
X166350000Y-92024000D01*
X166350000Y-88089327D01*
X166304328Y-87979064D01*
X166219937Y-87894672D01*
X166109674Y-87849000D01*
X165225000Y-87849000D01*
X165150000Y-87924000D01*
X165050000Y-87924000D01*
X164975000Y-87849000D01*
X164090326Y-87849000D01*
X163980063Y-87894672D01*
X163895672Y-87979064D01*
X163850000Y-88089327D01*
X163850000Y-88342531D01*
X163748671Y-88273296D01*
X163590000Y-88241164D01*
X161590000Y-88241164D01*
X161441769Y-88269056D01*
X161305628Y-88356660D01*
X161290994Y-88378077D01*
X161282340Y-88364628D01*
X161148671Y-88273296D01*
X160990000Y-88241164D01*
X158990000Y-88241164D01*
X158841769Y-88269056D01*
X158837836Y-88271587D01*
X158837836Y-88149000D01*
X158809944Y-88000769D01*
X158722340Y-87864628D01*
X158588671Y-87773296D01*
X158430000Y-87741164D01*
X156530000Y-87741164D01*
X156381769Y-87769056D01*
X156245628Y-87856660D01*
X156154296Y-87990329D01*
X156122164Y-88149000D01*
X156122164Y-96149000D01*
X156150056Y-96297231D01*
X156237660Y-96433372D01*
X156371329Y-96524704D01*
X156530000Y-96556836D01*
X157317730Y-96556836D01*
X159669058Y-98908164D01*
X159190000Y-98908164D01*
X159041769Y-98936056D01*
X158905628Y-99023660D01*
X158814296Y-99157329D01*
X158782164Y-99316000D01*
X158782164Y-100916000D01*
X158810056Y-101064231D01*
X158897660Y-101200372D01*
X159031329Y-101291704D01*
X159190000Y-101323836D01*
X159243019Y-101323836D01*
X159242888Y-101474726D01*
X159341636Y-101713714D01*
X159393000Y-101765168D01*
X159393000Y-103251000D01*
X159423123Y-103402441D01*
X159431060Y-103442342D01*
X159539447Y-103604553D01*
X159950893Y-104016000D01*
X159815000Y-104016000D01*
X159740000Y-104091000D01*
X159740000Y-105066000D01*
X160415000Y-105066000D01*
X160490000Y-104991000D01*
X160490000Y-104480180D01*
X160655000Y-104513000D01*
X161982164Y-104513000D01*
X161982164Y-104684458D01*
X161869180Y-104759951D01*
X161796274Y-104759888D01*
X161557286Y-104858636D01*
X161374278Y-105041324D01*
X161275113Y-105280140D01*
X161274888Y-105538726D01*
X161373636Y-105777714D01*
X161556324Y-105960722D01*
X161795140Y-106059887D01*
X162009274Y-106060073D01*
X162010056Y-106064231D01*
X162097660Y-106200372D01*
X162231329Y-106291704D01*
X162390000Y-106323836D01*
X163390000Y-106323836D01*
X163538231Y-106295944D01*
X163674372Y-106208340D01*
X163765704Y-106074671D01*
X163797836Y-105916000D01*
X163797836Y-104560942D01*
X165195764Y-105958870D01*
X165106620Y-106173552D01*
X165106182Y-106676243D01*
X165298148Y-107140837D01*
X165653294Y-107496603D01*
X165902302Y-107600000D01*
X165746893Y-107703842D01*
X165681368Y-107769368D01*
X165615842Y-107834893D01*
X165505721Y-107999700D01*
X165451014Y-108131775D01*
X165434796Y-108170929D01*
X165396127Y-108365332D01*
X165396127Y-108412115D01*
X165387000Y-108458000D01*
X165387000Y-108538216D01*
X165201879Y-109468882D01*
X164701200Y-110218200D01*
X163951882Y-110718879D01*
X163068000Y-110894694D01*
X162184118Y-110718879D01*
X161434800Y-110218200D01*
X160934121Y-109468882D01*
X160827243Y-108931569D01*
X161317696Y-108931569D01*
X161583557Y-109575001D01*
X162075410Y-110067713D01*
X162718376Y-110334696D01*
X163414569Y-110335304D01*
X164058001Y-110069443D01*
X164550713Y-109577590D01*
X164817696Y-108934624D01*
X164818304Y-108238431D01*
X164552443Y-107594999D01*
X164060590Y-107102287D01*
X163417624Y-106835304D01*
X162721431Y-106834696D01*
X162077999Y-107100557D01*
X161585287Y-107592410D01*
X161318304Y-108235376D01*
X161317696Y-108931569D01*
X160827243Y-108931569D01*
X160749000Y-108538216D01*
X160749000Y-108458000D01*
X160739873Y-108412115D01*
X160739873Y-108365333D01*
X160701204Y-108170929D01*
X160684986Y-108131775D01*
X160630279Y-107999700D01*
X160520158Y-107834893D01*
X160454632Y-107769368D01*
X160389107Y-107703842D01*
X160224300Y-107593721D01*
X160053072Y-107522796D01*
X160053071Y-107522796D01*
X159858668Y-107484127D01*
X159811885Y-107484127D01*
X159766000Y-107475000D01*
X156719856Y-107475000D01*
X156866276Y-107414351D01*
X156959725Y-107246435D01*
X156210000Y-106496711D01*
X156195858Y-106510853D01*
X156125147Y-106440142D01*
X156139289Y-106426000D01*
X156280711Y-106426000D01*
X157030435Y-107175725D01*
X157198351Y-107082276D01*
X157374263Y-106654094D01*
X157372926Y-106191187D01*
X157198351Y-105769724D01*
X157030435Y-105676275D01*
X156280711Y-106426000D01*
X156139289Y-106426000D01*
X155389565Y-105676275D01*
X155221649Y-105769724D01*
X155161000Y-105917348D01*
X155161000Y-105605565D01*
X155460275Y-105605565D01*
X156210000Y-106355289D01*
X156959725Y-105605565D01*
X156866276Y-105437649D01*
X156438094Y-105261737D01*
X155975187Y-105263074D01*
X155553724Y-105437649D01*
X155460275Y-105605565D01*
X155161000Y-105605565D01*
X155161000Y-105241000D01*
X158890000Y-105241000D01*
X158890000Y-105975674D01*
X158935672Y-106085937D01*
X159020064Y-106170328D01*
X159130327Y-106216000D01*
X159565000Y-106216000D01*
X159640000Y-106141000D01*
X159640000Y-105166000D01*
X159740000Y-105166000D01*
X159740000Y-106141000D01*
X159815000Y-106216000D01*
X160249673Y-106216000D01*
X160359936Y-106170328D01*
X160444328Y-106085937D01*
X160490000Y-105975674D01*
X160490000Y-105241000D01*
X160415000Y-105166000D01*
X159740000Y-105166000D01*
X159640000Y-105166000D01*
X158965000Y-105166000D01*
X158890000Y-105241000D01*
X155161000Y-105241000D01*
X155161000Y-104583826D01*
X155291745Y-104779500D01*
X155701686Y-105053414D01*
X156185245Y-105149600D01*
X156234755Y-105149600D01*
X156718314Y-105053414D01*
X157128255Y-104779500D01*
X157402169Y-104369559D01*
X157424692Y-104256326D01*
X158890000Y-104256326D01*
X158890000Y-104991000D01*
X158965000Y-105066000D01*
X159640000Y-105066000D01*
X159640000Y-104091000D01*
X159565000Y-104016000D01*
X159130327Y-104016000D01*
X159020064Y-104061672D01*
X158935672Y-104146063D01*
X158890000Y-104256326D01*
X157424692Y-104256326D01*
X157498355Y-103886000D01*
X157402169Y-103402441D01*
X157128255Y-102992500D01*
X156718314Y-102718586D01*
X156234755Y-102622400D01*
X156185245Y-102622400D01*
X155701686Y-102718586D01*
X155291745Y-102992500D01*
X155161000Y-103188174D01*
X155161000Y-102043826D01*
X155291745Y-102239500D01*
X155701686Y-102513414D01*
X156185245Y-102609600D01*
X156234755Y-102609600D01*
X156718314Y-102513414D01*
X157128255Y-102239500D01*
X157402169Y-101829559D01*
X157498355Y-101346000D01*
X157402169Y-100862441D01*
X157128255Y-100452500D01*
X156718314Y-100178586D01*
X156234755Y-100082400D01*
X156185245Y-100082400D01*
X155701686Y-100178586D01*
X155291745Y-100452500D01*
X155161000Y-100648174D01*
X155161000Y-99503826D01*
X155291745Y-99699500D01*
X155701686Y-99973414D01*
X156185245Y-100069600D01*
X156234755Y-100069600D01*
X156718314Y-99973414D01*
X157128255Y-99699500D01*
X157402169Y-99289559D01*
X157498355Y-98806000D01*
X157402169Y-98322441D01*
X157128255Y-97912500D01*
X156718314Y-97638586D01*
X156234755Y-97542400D01*
X156185245Y-97542400D01*
X155701686Y-97638586D01*
X155291745Y-97912500D01*
X155161000Y-98108174D01*
X155161000Y-97836783D01*
X155172109Y-97780935D01*
X155177246Y-97773246D01*
X155184935Y-97768109D01*
X155286668Y-97747873D01*
X155329889Y-97729970D01*
X155375775Y-97720843D01*
X155414675Y-97694851D01*
X155457896Y-97676948D01*
X155490976Y-97643868D01*
X155529876Y-97617876D01*
X155555867Y-97578978D01*
X155588949Y-97545896D01*
X155606853Y-97502671D01*
X155632843Y-97463775D01*
X155641969Y-97417895D01*
X155659874Y-97374669D01*
X155659874Y-97327880D01*
X155669000Y-97282000D01*
X155669000Y-88438784D01*
X155757448Y-87994126D01*
X155982824Y-87656826D01*
X156320126Y-87431448D01*
X156764784Y-87343000D01*
X165815216Y-87343000D01*
X166259874Y-87431448D01*
X166259874Y-87431448D01*
G37*
X166259874Y-87431448D02*
X166597174Y-87656824D01*
X166822552Y-87994126D01*
X166911000Y-88438784D01*
X166911000Y-97282000D01*
X166920127Y-97327885D01*
X166920127Y-97374669D01*
X166938030Y-97417891D01*
X166947157Y-97463775D01*
X166973149Y-97502675D01*
X166991052Y-97545896D01*
X167024132Y-97578976D01*
X167050124Y-97617876D01*
X167089024Y-97643868D01*
X167122104Y-97676948D01*
X167165325Y-97694851D01*
X167204225Y-97720843D01*
X167250111Y-97729970D01*
X167293332Y-97747873D01*
X167395065Y-97768109D01*
X167402754Y-97773246D01*
X167407891Y-97780935D01*
X167419000Y-97836783D01*
X167419000Y-98108174D01*
X167288255Y-97912500D01*
X166878314Y-97638586D01*
X166394755Y-97542400D01*
X166345245Y-97542400D01*
X165861686Y-97638586D01*
X165451745Y-97912500D01*
X165177831Y-98322441D01*
X165081645Y-98806000D01*
X165177831Y-99289559D01*
X165451745Y-99699500D01*
X165861686Y-99973414D01*
X166345245Y-100069600D01*
X166394755Y-100069600D01*
X166878314Y-99973414D01*
X167288255Y-99699500D01*
X167419000Y-99503826D01*
X167419000Y-100648174D01*
X167288255Y-100452500D01*
X166878314Y-100178586D01*
X166394755Y-100082400D01*
X166345245Y-100082400D01*
X165861686Y-100178586D01*
X165451745Y-100452500D01*
X165177831Y-100862441D01*
X165081645Y-101346000D01*
X165177831Y-101829559D01*
X165451745Y-102239500D01*
X165861686Y-102513414D01*
X166345245Y-102609600D01*
X166394755Y-102609600D01*
X166878314Y-102513414D01*
X167288255Y-102239500D01*
X167419000Y-102043826D01*
X167419000Y-103188174D01*
X167288255Y-102992500D01*
X166878314Y-102718586D01*
X166394755Y-102622400D01*
X166345245Y-102622400D01*
X165901728Y-102710621D01*
X164310553Y-101119447D01*
X164148342Y-101011060D01*
X163957000Y-100973000D01*
X163786293Y-100973000D01*
X163797836Y-100916000D01*
X163797836Y-99316000D01*
X163769944Y-99167769D01*
X163682340Y-99031628D01*
X163548671Y-98940296D01*
X163390000Y-98908164D01*
X162390000Y-98908164D01*
X162241769Y-98936056D01*
X162105628Y-99023660D01*
X162014296Y-99157329D01*
X161982164Y-99316000D01*
X161982164Y-100210662D01*
X161927860Y-100188113D01*
X161790000Y-100187993D01*
X161790000Y-98886106D01*
X162617057Y-98059050D01*
X162688726Y-98059112D01*
X162927714Y-97960364D01*
X163110722Y-97777676D01*
X163209887Y-97538860D01*
X163210112Y-97280274D01*
X163111364Y-97041286D01*
X163090000Y-97019885D01*
X163090000Y-96556836D01*
X163590000Y-96556836D01*
X163738231Y-96528944D01*
X163874372Y-96441340D01*
X163932704Y-96355968D01*
X163980063Y-96403328D01*
X164090326Y-96449000D01*
X164975000Y-96449000D01*
X165050000Y-96374000D01*
X165050000Y-92199000D01*
X165150000Y-92199000D01*
X165150000Y-96374000D01*
X165225000Y-96449000D01*
X166109674Y-96449000D01*
X166219937Y-96403328D01*
X166304328Y-96318936D01*
X166350000Y-96208673D01*
X166350000Y-92274000D01*
X166275000Y-92199000D01*
X165150000Y-92199000D01*
X165050000Y-92199000D01*
X165030000Y-92199000D01*
X165030000Y-92099000D01*
X165050000Y-92099000D01*
X165050000Y-87924000D01*
X165150000Y-87924000D01*
X165150000Y-92099000D01*
X166275000Y-92099000D01*
X166350000Y-92024000D01*
X166350000Y-88089327D01*
X166304328Y-87979064D01*
X166219937Y-87894672D01*
X166109674Y-87849000D01*
X165225000Y-87849000D01*
X165150000Y-87924000D01*
X165050000Y-87924000D01*
X164975000Y-87849000D01*
X164090326Y-87849000D01*
X163980063Y-87894672D01*
X163895672Y-87979064D01*
X163850000Y-88089327D01*
X163850000Y-88342531D01*
X163748671Y-88273296D01*
X163590000Y-88241164D01*
X161590000Y-88241164D01*
X161441769Y-88269056D01*
X161305628Y-88356660D01*
X161290994Y-88378077D01*
X161282340Y-88364628D01*
X161148671Y-88273296D01*
X160990000Y-88241164D01*
X158990000Y-88241164D01*
X158841769Y-88269056D01*
X158837836Y-88271587D01*
X158837836Y-88149000D01*
X158809944Y-88000769D01*
X158722340Y-87864628D01*
X158588671Y-87773296D01*
X158430000Y-87741164D01*
X156530000Y-87741164D01*
X156381769Y-87769056D01*
X156245628Y-87856660D01*
X156154296Y-87990329D01*
X156122164Y-88149000D01*
X156122164Y-96149000D01*
X156150056Y-96297231D01*
X156237660Y-96433372D01*
X156371329Y-96524704D01*
X156530000Y-96556836D01*
X157317730Y-96556836D01*
X159669058Y-98908164D01*
X159190000Y-98908164D01*
X159041769Y-98936056D01*
X158905628Y-99023660D01*
X158814296Y-99157329D01*
X158782164Y-99316000D01*
X158782164Y-100916000D01*
X158810056Y-101064231D01*
X158897660Y-101200372D01*
X159031329Y-101291704D01*
X159190000Y-101323836D01*
X159243019Y-101323836D01*
X159242888Y-101474726D01*
X159341636Y-101713714D01*
X159393000Y-101765168D01*
X159393000Y-103251000D01*
X159423123Y-103402441D01*
X159431060Y-103442342D01*
X159539447Y-103604553D01*
X159950893Y-104016000D01*
X159815000Y-104016000D01*
X159740000Y-104091000D01*
X159740000Y-105066000D01*
X160415000Y-105066000D01*
X160490000Y-104991000D01*
X160490000Y-104480180D01*
X160655000Y-104513000D01*
X161982164Y-104513000D01*
X161982164Y-104684458D01*
X161869180Y-104759951D01*
X161796274Y-104759888D01*
X161557286Y-104858636D01*
X161374278Y-105041324D01*
X161275113Y-105280140D01*
X161274888Y-105538726D01*
X161373636Y-105777714D01*
X161556324Y-105960722D01*
X161795140Y-106059887D01*
X162009274Y-106060073D01*
X162010056Y-106064231D01*
X162097660Y-106200372D01*
X162231329Y-106291704D01*
X162390000Y-106323836D01*
X163390000Y-106323836D01*
X163538231Y-106295944D01*
X163674372Y-106208340D01*
X163765704Y-106074671D01*
X163797836Y-105916000D01*
X163797836Y-104560942D01*
X165195764Y-105958870D01*
X165106620Y-106173552D01*
X165106182Y-106676243D01*
X165298148Y-107140837D01*
X165653294Y-107496603D01*
X165902302Y-107600000D01*
X165746893Y-107703842D01*
X165681368Y-107769368D01*
X165615842Y-107834893D01*
X165505721Y-107999700D01*
X165451014Y-108131775D01*
X165434796Y-108170929D01*
X165396127Y-108365332D01*
X165396127Y-108412115D01*
X165387000Y-108458000D01*
X165387000Y-108538216D01*
X165201879Y-109468882D01*
X164701200Y-110218200D01*
X163951882Y-110718879D01*
X163068000Y-110894694D01*
X162184118Y-110718879D01*
X161434800Y-110218200D01*
X160934121Y-109468882D01*
X160827243Y-108931569D01*
X161317696Y-108931569D01*
X161583557Y-109575001D01*
X162075410Y-110067713D01*
X162718376Y-110334696D01*
X163414569Y-110335304D01*
X164058001Y-110069443D01*
X164550713Y-109577590D01*
X164817696Y-108934624D01*
X164818304Y-108238431D01*
X164552443Y-107594999D01*
X164060590Y-107102287D01*
X163417624Y-106835304D01*
X162721431Y-106834696D01*
X162077999Y-107100557D01*
X161585287Y-107592410D01*
X161318304Y-108235376D01*
X161317696Y-108931569D01*
X160827243Y-108931569D01*
X160749000Y-108538216D01*
X160749000Y-108458000D01*
X160739873Y-108412115D01*
X160739873Y-108365333D01*
X160701204Y-108170929D01*
X160684986Y-108131775D01*
X160630279Y-107999700D01*
X160520158Y-107834893D01*
X160454632Y-107769368D01*
X160389107Y-107703842D01*
X160224300Y-107593721D01*
X160053072Y-107522796D01*
X160053071Y-107522796D01*
X159858668Y-107484127D01*
X159811885Y-107484127D01*
X159766000Y-107475000D01*
X156719856Y-107475000D01*
X156866276Y-107414351D01*
X156959725Y-107246435D01*
X156210000Y-106496711D01*
X156195858Y-106510853D01*
X156125147Y-106440142D01*
X156139289Y-106426000D01*
X156280711Y-106426000D01*
X157030435Y-107175725D01*
X157198351Y-107082276D01*
X157374263Y-106654094D01*
X157372926Y-106191187D01*
X157198351Y-105769724D01*
X157030435Y-105676275D01*
X156280711Y-106426000D01*
X156139289Y-106426000D01*
X155389565Y-105676275D01*
X155221649Y-105769724D01*
X155161000Y-105917348D01*
X155161000Y-105605565D01*
X155460275Y-105605565D01*
X156210000Y-106355289D01*
X156959725Y-105605565D01*
X156866276Y-105437649D01*
X156438094Y-105261737D01*
X155975187Y-105263074D01*
X155553724Y-105437649D01*
X155460275Y-105605565D01*
X155161000Y-105605565D01*
X155161000Y-105241000D01*
X158890000Y-105241000D01*
X158890000Y-105975674D01*
X158935672Y-106085937D01*
X159020064Y-106170328D01*
X159130327Y-106216000D01*
X159565000Y-106216000D01*
X159640000Y-106141000D01*
X159640000Y-105166000D01*
X159740000Y-105166000D01*
X159740000Y-106141000D01*
X159815000Y-106216000D01*
X160249673Y-106216000D01*
X160359936Y-106170328D01*
X160444328Y-106085937D01*
X160490000Y-105975674D01*
X160490000Y-105241000D01*
X160415000Y-105166000D01*
X159740000Y-105166000D01*
X159640000Y-105166000D01*
X158965000Y-105166000D01*
X158890000Y-105241000D01*
X155161000Y-105241000D01*
X155161000Y-104583826D01*
X155291745Y-104779500D01*
X155701686Y-105053414D01*
X156185245Y-105149600D01*
X156234755Y-105149600D01*
X156718314Y-105053414D01*
X157128255Y-104779500D01*
X157402169Y-104369559D01*
X157424692Y-104256326D01*
X158890000Y-104256326D01*
X158890000Y-104991000D01*
X158965000Y-105066000D01*
X159640000Y-105066000D01*
X159640000Y-104091000D01*
X159565000Y-104016000D01*
X159130327Y-104016000D01*
X159020064Y-104061672D01*
X158935672Y-104146063D01*
X158890000Y-104256326D01*
X157424692Y-104256326D01*
X157498355Y-103886000D01*
X157402169Y-103402441D01*
X157128255Y-102992500D01*
X156718314Y-102718586D01*
X156234755Y-102622400D01*
X156185245Y-102622400D01*
X155701686Y-102718586D01*
X155291745Y-102992500D01*
X155161000Y-103188174D01*
X155161000Y-102043826D01*
X155291745Y-102239500D01*
X155701686Y-102513414D01*
X156185245Y-102609600D01*
X156234755Y-102609600D01*
X156718314Y-102513414D01*
X157128255Y-102239500D01*
X157402169Y-101829559D01*
X157498355Y-101346000D01*
X157402169Y-100862441D01*
X157128255Y-100452500D01*
X156718314Y-100178586D01*
X156234755Y-100082400D01*
X156185245Y-100082400D01*
X155701686Y-100178586D01*
X155291745Y-100452500D01*
X155161000Y-100648174D01*
X155161000Y-99503826D01*
X155291745Y-99699500D01*
X155701686Y-99973414D01*
X156185245Y-100069600D01*
X156234755Y-100069600D01*
X156718314Y-99973414D01*
X157128255Y-99699500D01*
X157402169Y-99289559D01*
X157498355Y-98806000D01*
X157402169Y-98322441D01*
X157128255Y-97912500D01*
X156718314Y-97638586D01*
X156234755Y-97542400D01*
X156185245Y-97542400D01*
X155701686Y-97638586D01*
X155291745Y-97912500D01*
X155161000Y-98108174D01*
X155161000Y-97836783D01*
X155172109Y-97780935D01*
X155177246Y-97773246D01*
X155184935Y-97768109D01*
X155286668Y-97747873D01*
X155329889Y-97729970D01*
X155375775Y-97720843D01*
X155414675Y-97694851D01*
X155457896Y-97676948D01*
X155490976Y-97643868D01*
X155529876Y-97617876D01*
X155555867Y-97578978D01*
X155588949Y-97545896D01*
X155606853Y-97502671D01*
X155632843Y-97463775D01*
X155641969Y-97417895D01*
X155659874Y-97374669D01*
X155659874Y-97327880D01*
X155669000Y-97282000D01*
X155669000Y-88438784D01*
X155757448Y-87994126D01*
X155982824Y-87656826D01*
X156320126Y-87431448D01*
X156764784Y-87343000D01*
X165815216Y-87343000D01*
X166259874Y-87431448D01*
M02*
