M48
;DRILL file {KiCad 4.0.2-stable} date Fri Jul  1 19:55:01 2016
;FORMAT={-:-/ absolute / metric / decimal}
FMAT,2
METRIC,TZ
T1C0.300
T2C1.016
T3C2.700
%
G90
G05
M71
T1
X159.893Y-101.346
X160.02Y-97.409
X160.909Y-102.489
X161.29Y-103.124
X161.798Y-100.838
X161.798Y-102.616
X161.925Y-105.41
X162.306Y-98.679
X162.306Y-103.505
X162.56Y-97.409
X162.687Y-101.473
T2
X156.21Y-98.806
X156.21Y-101.346
X156.21Y-103.886
X156.21Y-106.426
X166.37Y-98.806
X166.37Y-101.346
X166.37Y-103.886
X166.37Y-106.426
T3
X163.068Y-108.585
T0
M30
