G04 #@! TF.FileFunction,Soldermask,Bot*
%FSLAX46Y46*%
G04 Gerber Fmt 4.6, Leading zero omitted, Abs format (unit mm)*
G04 Created by KiCad (PCBNEW 4.0.2-stable) date Fri Jul  1 19:54:59 2016*
%MOMM*%
G01*
G04 APERTURE LIST*
%ADD10C,0.100000*%
%ADD11C,0.200000*%
%ADD12R,0.990000X0.850000*%
%ADD13R,0.900000X1.300000*%
%ADD14R,1.365200X1.670000*%
%ADD15R,1.150000X1.200000*%
%ADD16R,1.310000X1.620000*%
%ADD17R,1.950000X1.000000*%
%ADD18C,2.127200*%
%ADD19O,2.127200X2.127200*%
%ADD20C,3.100000*%
G04 APERTURE END LIST*
D10*
D11*
X157943571Y-89176286D02*
X158107857Y-89119143D01*
X158393571Y-89119143D01*
X158515000Y-89176286D01*
X158579286Y-89233429D01*
X158650714Y-89347714D01*
X158665000Y-89462000D01*
X158622143Y-89576286D01*
X158572143Y-89633429D01*
X158464999Y-89690571D01*
X158243571Y-89747714D01*
X158136428Y-89804857D01*
X158086428Y-89862000D01*
X158043571Y-89976286D01*
X158057856Y-90090571D01*
X158129285Y-90204857D01*
X158193571Y-90262000D01*
X158315000Y-90319143D01*
X158600714Y-90319143D01*
X158765000Y-90262000D01*
X159136428Y-89119143D02*
X159286428Y-90319143D01*
X159307857Y-89576286D02*
X159593571Y-89119143D01*
X159693571Y-89919143D02*
X159179285Y-89462000D01*
X160093572Y-89919143D02*
X160279286Y-89119143D01*
X160665000Y-89919143D02*
X160279286Y-89119143D01*
X160129286Y-88833429D01*
X160065000Y-88776286D01*
X159943572Y-88719143D01*
X161486429Y-89176286D02*
X161365000Y-89119143D01*
X161136429Y-89119143D01*
X161029286Y-89176286D01*
X160986428Y-89290571D01*
X161043571Y-89747714D01*
X161115000Y-89862000D01*
X161236429Y-89919143D01*
X161465000Y-89919143D01*
X161572143Y-89862000D01*
X161615000Y-89747714D01*
X161600715Y-89633429D01*
X161015000Y-89519143D01*
X162950715Y-89919143D02*
X163136429Y-89119143D01*
X163522143Y-89919143D01*
X164507858Y-89119143D02*
X163822143Y-89119143D01*
X164165001Y-89119143D02*
X164315001Y-90319143D01*
X164179286Y-90147714D01*
X164050715Y-90033429D01*
X163929286Y-89976286D01*
D12*
X163869000Y-97409000D03*
X161759000Y-97409000D03*
X158711000Y-97409000D03*
X160821000Y-97409000D03*
D13*
X164580000Y-104013000D03*
X163080000Y-104013000D03*
D14*
X164465000Y-105918000D03*
X163195000Y-105918000D03*
D13*
X160770000Y-107188000D03*
X159270000Y-107188000D03*
D15*
X158115000Y-105422000D03*
X158115000Y-106922000D03*
D13*
X160770000Y-105537000D03*
X159270000Y-105537000D03*
D16*
X158131000Y-104013000D03*
X161401000Y-104013000D03*
D17*
X163990000Y-98679000D03*
X163990000Y-99949000D03*
X163990000Y-101219000D03*
X163990000Y-102489000D03*
X158590000Y-102489000D03*
X158590000Y-101219000D03*
X158590000Y-99949000D03*
X158590000Y-98679000D03*
D18*
X166370000Y-106426000D03*
D19*
X166370000Y-103886000D03*
X166370000Y-101346000D03*
X166370000Y-98806000D03*
D18*
X156210000Y-106426000D03*
D19*
X156210000Y-103886000D03*
X156210000Y-101346000D03*
X156210000Y-98806000D03*
D20*
X163068000Y-108585000D03*
M02*
