G04 #@! TF.FileFunction,Legend,Bot*
%FSLAX46Y46*%
G04 Gerber Fmt 4.6, Leading zero omitted, Abs format (unit mm)*
G04 Created by KiCad (PCBNEW 4.0.2-stable) date Thu Jun 16 22:02:21 2016*
%MOMM*%
G01*
G04 APERTURE LIST*
%ADD10C,0.100000*%
%ADD11C,0.150000*%
G04 APERTURE END LIST*
D10*
D11*
X165100000Y-105156000D02*
X165100000Y-97536000D01*
X167640000Y-105156000D02*
X167640000Y-97536000D01*
X167920000Y-107976000D02*
X167920000Y-106426000D01*
X165100000Y-97536000D02*
X167640000Y-97536000D01*
X167640000Y-105156000D02*
X165100000Y-105156000D01*
X164820000Y-106426000D02*
X164820000Y-107976000D01*
X164820000Y-107976000D02*
X167920000Y-107976000D01*
X163365000Y-97501000D02*
X163365000Y-97646000D01*
X159215000Y-97501000D02*
X159215000Y-97646000D01*
X159215000Y-102651000D02*
X159215000Y-102506000D01*
X163365000Y-102651000D02*
X163365000Y-102506000D01*
X163365000Y-97501000D02*
X159215000Y-97501000D01*
X163365000Y-102651000D02*
X159215000Y-102651000D01*
X163365000Y-97646000D02*
X164765000Y-97646000D01*
X157515000Y-105568000D02*
X157515000Y-106268000D01*
X158715000Y-106268000D02*
X158715000Y-105568000D01*
X160083500Y-103505000D02*
X160464500Y-103505000D01*
X159067500Y-103505000D02*
X159448500Y-103505000D01*
X159448500Y-103505000D02*
X160083500Y-103886000D01*
X160083500Y-103886000D02*
X160083500Y-103124000D01*
X160083500Y-103124000D02*
X159448500Y-103505000D01*
X159448500Y-104013000D02*
X159448500Y-102997000D01*
X157766000Y-102605000D02*
X161306000Y-102605000D01*
X157766000Y-104405000D02*
X161306000Y-104405000D01*
X159520000Y-105831000D02*
X160520000Y-105831000D01*
X160520000Y-104481000D02*
X159520000Y-104481000D01*
X159393000Y-107228000D02*
X160393000Y-107228000D01*
X160393000Y-105878000D02*
X159393000Y-105878000D01*
X163330000Y-104053000D02*
X164330000Y-104053000D01*
X164330000Y-102703000D02*
X163330000Y-102703000D01*
X164465000Y-106426000D02*
X161925000Y-106426000D01*
X161925000Y-104648000D02*
X164465000Y-104648000D01*
X161925000Y-104648000D02*
X161925000Y-106426000D01*
X164465000Y-106426000D02*
X164465000Y-104648000D01*
X154940000Y-105156000D02*
X154940000Y-97536000D01*
X157480000Y-105156000D02*
X157480000Y-97536000D01*
X157760000Y-107976000D02*
X157760000Y-106426000D01*
X154940000Y-97536000D02*
X157480000Y-97536000D01*
X157480000Y-105156000D02*
X154940000Y-105156000D01*
X154660000Y-106426000D02*
X154660000Y-107976000D01*
X154660000Y-107976000D02*
X157760000Y-107976000D01*
M02*
