G04 #@! TF.FileFunction,Soldermask,Bot*
%FSLAX46Y46*%
G04 Gerber Fmt 4.6, Leading zero omitted, Abs format (unit mm)*
G04 Created by KiCad (PCBNEW 4.0.2-stable) date Thu Jun 16 22:02:21 2016*
%MOMM*%
G01*
G04 APERTURE LIST*
%ADD10C,0.100000*%
%ADD11C,0.150000*%
%ADD12C,2.127200*%
%ADD13O,2.127200X2.127200*%
%ADD14R,1.950000X1.000000*%
%ADD15R,1.150000X1.200000*%
%ADD16R,1.310000X1.620000*%
%ADD17R,0.900000X1.300000*%
%ADD18R,1.365200X1.670000*%
%ADD19C,3.100000*%
G04 APERTURE END LIST*
D10*
D11*
X163858453Y-92813143D02*
X163912024Y-92860762D01*
X164060834Y-92908381D01*
X164156072Y-92908381D01*
X164292977Y-92860762D01*
X164376310Y-92765524D01*
X164412025Y-92670286D01*
X164435834Y-92479810D01*
X164417977Y-92336952D01*
X164346548Y-92146476D01*
X164287025Y-92051238D01*
X164179882Y-91956000D01*
X164031072Y-91908381D01*
X163935834Y-91908381D01*
X163798929Y-91956000D01*
X163757262Y-92003619D01*
X163441787Y-92908381D02*
X163316787Y-91908381D01*
X163013215Y-92908381D02*
X162947738Y-92384571D01*
X162983453Y-92289333D01*
X163072738Y-92241714D01*
X163215596Y-92241714D01*
X163316787Y-92289333D01*
X163370358Y-92336952D01*
X162394168Y-92908381D02*
X162483453Y-92860762D01*
X162519167Y-92765524D01*
X162412025Y-91908381D01*
X161870358Y-92908381D02*
X161959643Y-92860762D01*
X162001310Y-92813143D01*
X162037024Y-92717905D01*
X162001310Y-92432190D01*
X161941786Y-92336952D01*
X161888215Y-92289333D01*
X161787024Y-92241714D01*
X161644166Y-92241714D01*
X161554881Y-92289333D01*
X161513214Y-92336952D01*
X161477500Y-92432190D01*
X161513214Y-92717905D01*
X161572738Y-92813143D01*
X161626309Y-92860762D01*
X161727500Y-92908381D01*
X161870358Y-92908381D01*
X160721547Y-92860762D02*
X160822738Y-92908381D01*
X161013215Y-92908381D01*
X161102500Y-92860762D01*
X161138214Y-92765524D01*
X161090595Y-92384571D01*
X161031072Y-92289333D01*
X160929881Y-92241714D01*
X160739404Y-92241714D01*
X160650119Y-92289333D01*
X160614404Y-92384571D01*
X160626309Y-92479810D01*
X161114405Y-92575048D01*
X160691785Y-91860762D02*
X160852500Y-92003619D01*
X159501309Y-92241714D02*
X159346548Y-92908381D01*
X159025118Y-92241714D01*
X158203690Y-92908381D02*
X158775119Y-92908381D01*
X158489405Y-92908381D02*
X158364405Y-91908381D01*
X158477500Y-92051238D01*
X158584642Y-92146476D01*
X158685833Y-92194095D01*
D12*
X166370000Y-106426000D03*
D13*
X166370000Y-103886000D03*
X166370000Y-101346000D03*
X166370000Y-98806000D03*
D14*
X163990000Y-98171000D03*
X163990000Y-99441000D03*
X163990000Y-100711000D03*
X163990000Y-101981000D03*
X158590000Y-101981000D03*
X158590000Y-100711000D03*
X158590000Y-99441000D03*
X158590000Y-98171000D03*
D15*
X158115000Y-105168000D03*
X158115000Y-106668000D03*
D16*
X158131000Y-103505000D03*
X161401000Y-103505000D03*
D17*
X160770000Y-105156000D03*
X159270000Y-105156000D03*
X160643000Y-106553000D03*
X159143000Y-106553000D03*
X164580000Y-103378000D03*
X163080000Y-103378000D03*
D18*
X163830000Y-105537000D03*
X162560000Y-105537000D03*
D12*
X156210000Y-106426000D03*
D13*
X156210000Y-103886000D03*
X156210000Y-101346000D03*
X156210000Y-98806000D03*
D19*
X163068000Y-108585000D03*
M02*
