M48
;DRILL file {KiCad 4.0.2-stable} date Fri Jun 17 01:06:22 2016
;FORMAT={-:-/ absolute / metric / decimal}
FMAT,2
METRIC,TZ
T1C0.300
T2C1.016
T3C2.700
%
G90
G05
M71
T1
X159.512Y-102.87
X159.512Y-103.632
X160.274Y-101.6
X160.274Y-102.87
X161.925Y-104.521
X162.052Y-98.552
X162.052Y-100.711
X162.306Y-101.6
X162.306Y-102.87
X162.89Y-105.116
X162.941Y-101.346
T2
X156.21Y-98.806
X156.21Y-101.346
X156.21Y-103.886
X156.21Y-106.426
X166.37Y-98.806
X166.37Y-101.346
X166.37Y-103.886
X166.37Y-106.426
T3
X163.068Y-108.585
T0
M30
