G04 #@! TF.FileFunction,Soldermask,Bot*
%FSLAX46Y46*%
G04 Gerber Fmt 4.6, Leading zero omitted, Abs format (unit mm)*
G04 Created by KiCad (PCBNEW 4.0.2-stable) date Thu Jun 16 03:15:18 2016*
%MOMM*%
G01*
G04 APERTURE LIST*
%ADD10C,0.100000*%
%ADD11C,0.150000*%
%ADD12R,1.950000X1.000000*%
%ADD13R,1.200000X1.150000*%
%ADD14R,1.620000X1.310000*%
%ADD15R,0.900000X1.300000*%
%ADD16R,1.300000X0.900000*%
%ADD17R,1.670000X1.365200*%
%ADD18R,2.127200X2.127200*%
%ADD19O,2.127200X2.127200*%
%ADD20C,2.600000*%
G04 APERTURE END LIST*
D10*
D11*
X163858453Y-93575143D02*
X163912024Y-93622762D01*
X164060834Y-93670381D01*
X164156072Y-93670381D01*
X164292977Y-93622762D01*
X164376310Y-93527524D01*
X164412025Y-93432286D01*
X164435834Y-93241810D01*
X164417977Y-93098952D01*
X164346548Y-92908476D01*
X164287025Y-92813238D01*
X164179882Y-92718000D01*
X164031072Y-92670381D01*
X163935834Y-92670381D01*
X163798929Y-92718000D01*
X163757262Y-92765619D01*
X163441787Y-93670381D02*
X163316787Y-92670381D01*
X163013215Y-93670381D02*
X162947738Y-93146571D01*
X162983453Y-93051333D01*
X163072738Y-93003714D01*
X163215596Y-93003714D01*
X163316787Y-93051333D01*
X163370358Y-93098952D01*
X162394168Y-93670381D02*
X162483453Y-93622762D01*
X162519167Y-93527524D01*
X162412025Y-92670381D01*
X161870358Y-93670381D02*
X161959643Y-93622762D01*
X162001310Y-93575143D01*
X162037024Y-93479905D01*
X162001310Y-93194190D01*
X161941786Y-93098952D01*
X161888215Y-93051333D01*
X161787024Y-93003714D01*
X161644166Y-93003714D01*
X161554881Y-93051333D01*
X161513214Y-93098952D01*
X161477500Y-93194190D01*
X161513214Y-93479905D01*
X161572738Y-93575143D01*
X161626309Y-93622762D01*
X161727500Y-93670381D01*
X161870358Y-93670381D01*
X160721547Y-93622762D02*
X160822738Y-93670381D01*
X161013215Y-93670381D01*
X161102500Y-93622762D01*
X161138214Y-93527524D01*
X161090595Y-93146571D01*
X161031072Y-93051333D01*
X160929881Y-93003714D01*
X160739404Y-93003714D01*
X160650119Y-93051333D01*
X160614404Y-93146571D01*
X160626309Y-93241810D01*
X161114405Y-93337048D01*
X160691785Y-92622762D02*
X160852500Y-92765619D01*
X159501309Y-93003714D02*
X159346548Y-93670381D01*
X159025118Y-93003714D01*
X158203690Y-93670381D02*
X158775119Y-93670381D01*
X158489405Y-93670381D02*
X158364405Y-92670381D01*
X158477500Y-92813238D01*
X158584642Y-92908476D01*
X158685833Y-92956095D01*
D12*
X160368000Y-106045000D03*
X160368000Y-104775000D03*
X160368000Y-103505000D03*
X160368000Y-102235000D03*
X165768000Y-102235000D03*
X165768000Y-103505000D03*
X165768000Y-104775000D03*
X165768000Y-106045000D03*
D13*
X159500000Y-100838000D03*
X158000000Y-100838000D03*
D14*
X156464000Y-103997000D03*
X156464000Y-100727000D03*
D15*
X161786000Y-100838000D03*
X160286000Y-100838000D03*
D16*
X158242000Y-104636000D03*
X158242000Y-103136000D03*
D15*
X162572000Y-100838000D03*
X164072000Y-100838000D03*
D17*
X156210000Y-106807000D03*
X156210000Y-105537000D03*
D18*
X157480000Y-99060000D03*
D19*
X160020000Y-99060000D03*
X162560000Y-99060000D03*
X165100000Y-99060000D03*
D18*
X157480000Y-109220000D03*
D19*
X160020000Y-109220000D03*
X162560000Y-109220000D03*
X165100000Y-109220000D03*
D20*
X157734000Y-112014000D03*
M02*
