G04 #@! TF.FileFunction,Copper,L2,Bot,Signal*
%FSLAX46Y46*%
G04 Gerber Fmt 4.6, Leading zero omitted, Abs format (unit mm)*
G04 Created by KiCad (PCBNEW 4.0.2-stable) date Thu Jun 16 03:15:18 2016*
%MOMM*%
G01*
G04 APERTURE LIST*
%ADD10C,0.100000*%
%ADD11R,1.550000X0.600000*%
%ADD12R,0.800000X0.750000*%
%ADD13R,1.220000X0.910000*%
%ADD14R,0.500000X0.900000*%
%ADD15R,0.900000X0.500000*%
%ADD16R,1.270000X0.965200*%
%ADD17R,1.727200X1.727200*%
%ADD18O,1.727200X1.727200*%
%ADD19C,0.500000*%
%ADD20C,0.170000*%
%ADD21C,0.152000*%
G04 APERTURE END LIST*
D10*
D11*
X160368000Y-106045000D03*
X160368000Y-104775000D03*
X160368000Y-103505000D03*
X160368000Y-102235000D03*
X165768000Y-102235000D03*
X165768000Y-103505000D03*
X165768000Y-104775000D03*
X165768000Y-106045000D03*
D12*
X159500000Y-100838000D03*
X158000000Y-100838000D03*
D13*
X156464000Y-103997000D03*
X156464000Y-100727000D03*
D14*
X161786000Y-100838000D03*
X160286000Y-100838000D03*
D15*
X158242000Y-104636000D03*
X158242000Y-103136000D03*
D14*
X162572000Y-100838000D03*
X164072000Y-100838000D03*
D16*
X156210000Y-106807000D03*
X156210000Y-105537000D03*
D17*
X157480000Y-99060000D03*
D18*
X160020000Y-99060000D03*
X162560000Y-99060000D03*
X165100000Y-99060000D03*
D17*
X157480000Y-109220000D03*
D18*
X160020000Y-109220000D03*
X162560000Y-109220000D03*
X165100000Y-109220000D03*
D19*
X163830000Y-106680000D03*
X161671000Y-102489000D03*
X155956000Y-99822000D03*
X161798000Y-103886000D03*
X164084000Y-104140000D03*
X161798000Y-105410000D03*
X162560000Y-97028000D03*
X160020000Y-97028000D03*
X157353000Y-105537000D03*
D20*
X164465000Y-106045000D02*
X165768000Y-106045000D01*
X163830000Y-106680000D02*
X164465000Y-106045000D01*
X159500000Y-100838000D02*
X159500000Y-100850000D01*
X159500000Y-100850000D02*
X158750000Y-101600000D01*
X156464000Y-102362000D02*
X156464000Y-103997000D01*
X157226000Y-101600000D02*
X156464000Y-102362000D01*
X158750000Y-101600000D02*
X157226000Y-101600000D01*
X160286000Y-100838000D02*
X159500000Y-100838000D01*
X159500000Y-100838000D02*
X159500000Y-99580000D01*
X159500000Y-99580000D02*
X160020000Y-99060000D01*
X161417000Y-102235000D02*
X160368000Y-102235000D01*
X161671000Y-102489000D02*
X161417000Y-102235000D01*
X157480000Y-99060000D02*
X157480000Y-100318000D01*
X157480000Y-100318000D02*
X158000000Y-100838000D01*
X155956000Y-99822000D02*
X156464000Y-100330000D01*
X156464000Y-100330000D02*
X156464000Y-100727000D01*
X160368000Y-106045000D02*
X161925000Y-106045000D01*
X161925000Y-106045000D02*
X165100000Y-109220000D01*
X158242000Y-104636000D02*
X158242000Y-107442000D01*
X158242000Y-107442000D02*
X160020000Y-109220000D01*
X158242000Y-104636000D02*
X160229000Y-104636000D01*
X160229000Y-104636000D02*
X160368000Y-104775000D01*
X160368000Y-103505000D02*
X161417000Y-103505000D01*
X161417000Y-103505000D02*
X161798000Y-103886000D01*
X162572000Y-100838000D02*
X162572000Y-102350000D01*
X162572000Y-102350000D02*
X161417000Y-103505000D01*
X162560000Y-99060000D02*
X162687000Y-99060000D01*
X162687000Y-99060000D02*
X163322000Y-99695000D01*
X163322000Y-99695000D02*
X163322000Y-101346000D01*
X163322000Y-101346000D02*
X164211000Y-102235000D01*
X164211000Y-102235000D02*
X165768000Y-102235000D01*
X165768000Y-103505000D02*
X164719000Y-103505000D01*
X164719000Y-103505000D02*
X164084000Y-104140000D01*
X165100000Y-99060000D02*
X165227000Y-99060000D01*
X166116000Y-103505000D02*
X165768000Y-103505000D01*
X165768000Y-104775000D02*
X162433000Y-104775000D01*
X162433000Y-104775000D02*
X161798000Y-105410000D01*
X156210000Y-106807000D02*
X156210000Y-107950000D01*
X156210000Y-107950000D02*
X157480000Y-109220000D01*
X163830000Y-98298000D02*
X163830000Y-100596000D01*
X162560000Y-97028000D02*
X163830000Y-98298000D01*
X163830000Y-100596000D02*
X164072000Y-100838000D01*
X161786000Y-100838000D02*
X161786000Y-100850000D01*
X161786000Y-100850000D02*
X161049582Y-101586418D01*
X158242000Y-102616000D02*
X158242000Y-103136000D01*
X159271582Y-101586418D02*
X158242000Y-102616000D01*
X161049582Y-101586418D02*
X159271582Y-101586418D01*
X161290000Y-100342000D02*
X161786000Y-100838000D01*
X161290000Y-98298000D02*
X161290000Y-100342000D01*
X160020000Y-97028000D02*
X161290000Y-98298000D01*
X157353000Y-105537000D02*
X156210000Y-105537000D01*
D21*
G36*
X166739633Y-88112837D02*
X166837662Y-88178337D01*
X166903164Y-88276368D01*
X166935000Y-88436419D01*
X166935000Y-110445581D01*
X166903164Y-110605632D01*
X166837662Y-110703663D01*
X166739633Y-110769163D01*
X166579581Y-110801000D01*
X161036000Y-110801000D01*
X160992434Y-110809666D01*
X160948014Y-110809666D01*
X160656409Y-110867670D01*
X160656408Y-110867670D01*
X160633867Y-110877007D01*
X160493833Y-110935011D01*
X160493832Y-110935012D01*
X160246624Y-111100191D01*
X160246623Y-111100192D01*
X160122192Y-111224622D01*
X159957012Y-111471832D01*
X159957011Y-111471833D01*
X159944283Y-111502562D01*
X159892742Y-111626993D01*
X159889670Y-111634409D01*
X159831666Y-111926014D01*
X159655822Y-112810043D01*
X159204898Y-113484898D01*
X158530044Y-113935821D01*
X157734000Y-114094164D01*
X156937957Y-113935822D01*
X156263102Y-113484898D01*
X155812179Y-112810044D01*
X155711980Y-112306307D01*
X156257744Y-112306307D01*
X156481978Y-112848995D01*
X156896821Y-113264563D01*
X157439117Y-113489744D01*
X158026307Y-113490256D01*
X158568995Y-113266022D01*
X158984563Y-112851179D01*
X159209744Y-112308883D01*
X159210256Y-111721693D01*
X158986022Y-111179005D01*
X158571179Y-110763437D01*
X158028883Y-110538256D01*
X157441693Y-110537744D01*
X156899005Y-110761978D01*
X156483437Y-111176821D01*
X156258256Y-111719117D01*
X156257744Y-112306307D01*
X155711980Y-112306307D01*
X155645000Y-111969581D01*
X155645000Y-107672966D01*
X155749000Y-107672966D01*
X155749000Y-107950000D01*
X155784092Y-108126417D01*
X155884024Y-108275976D01*
X156233034Y-108624986D01*
X156233034Y-110083600D01*
X156259252Y-110222937D01*
X156341600Y-110350910D01*
X156467249Y-110436762D01*
X156616400Y-110466966D01*
X158343600Y-110466966D01*
X158482937Y-110440748D01*
X158610910Y-110358400D01*
X158696762Y-110232751D01*
X158726966Y-110083600D01*
X158726966Y-108578918D01*
X158873868Y-108725820D01*
X158780400Y-109195715D01*
X158780400Y-109244285D01*
X158874759Y-109718659D01*
X159143470Y-110120815D01*
X159545626Y-110389526D01*
X160020000Y-110483885D01*
X160494374Y-110389526D01*
X160896530Y-110120815D01*
X161165241Y-109718659D01*
X161259600Y-109244285D01*
X161259600Y-109195715D01*
X161320400Y-109195715D01*
X161320400Y-109244285D01*
X161414759Y-109718659D01*
X161683470Y-110120815D01*
X162085626Y-110389526D01*
X162560000Y-110483885D01*
X163034374Y-110389526D01*
X163436530Y-110120815D01*
X163705241Y-109718659D01*
X163799600Y-109244285D01*
X163799600Y-109195715D01*
X163705241Y-108721341D01*
X163436530Y-108319185D01*
X163034374Y-108050474D01*
X162560000Y-107956115D01*
X162085626Y-108050474D01*
X161683470Y-108319185D01*
X161414759Y-108721341D01*
X161320400Y-109195715D01*
X161259600Y-109195715D01*
X161165241Y-108721341D01*
X160896530Y-108319185D01*
X160494374Y-108050474D01*
X160020000Y-107956115D01*
X159545626Y-108050474D01*
X159519729Y-108067777D01*
X158703000Y-107251048D01*
X158703000Y-105267296D01*
X158831337Y-105243148D01*
X158959310Y-105160800D01*
X159002903Y-105097000D01*
X159213774Y-105097000D01*
X159235852Y-105214337D01*
X159318200Y-105342310D01*
X159418226Y-105410655D01*
X159325690Y-105470200D01*
X159239838Y-105595849D01*
X159209634Y-105745000D01*
X159209634Y-106345000D01*
X159235852Y-106484337D01*
X159318200Y-106612310D01*
X159443849Y-106698162D01*
X159593000Y-106728366D01*
X161143000Y-106728366D01*
X161282337Y-106702148D01*
X161410310Y-106619800D01*
X161488066Y-106506000D01*
X161734048Y-106506000D01*
X163953868Y-108725820D01*
X163860400Y-109195715D01*
X163860400Y-109244285D01*
X163954759Y-109718659D01*
X164223470Y-110120815D01*
X164625626Y-110389526D01*
X165100000Y-110483885D01*
X165574374Y-110389526D01*
X165976530Y-110120815D01*
X166245241Y-109718659D01*
X166339600Y-109244285D01*
X166339600Y-109195715D01*
X166245241Y-108721341D01*
X165976530Y-108319185D01*
X165574374Y-108050474D01*
X165100000Y-107956115D01*
X164625626Y-108050474D01*
X164599729Y-108067777D01*
X163837959Y-107306007D01*
X163953973Y-107306108D01*
X164184137Y-107211006D01*
X164360387Y-107035063D01*
X164455891Y-106805065D01*
X164455977Y-106705975D01*
X164652204Y-106509749D01*
X164718200Y-106612310D01*
X164843849Y-106698162D01*
X164993000Y-106728366D01*
X166543000Y-106728366D01*
X166682337Y-106702148D01*
X166810310Y-106619800D01*
X166896162Y-106494151D01*
X166926366Y-106345000D01*
X166926366Y-105745000D01*
X166900148Y-105605663D01*
X166817800Y-105477690D01*
X166717774Y-105409345D01*
X166810310Y-105349800D01*
X166896162Y-105224151D01*
X166926366Y-105075000D01*
X166926366Y-104475000D01*
X166900148Y-104335663D01*
X166817800Y-104207690D01*
X166717774Y-104139345D01*
X166810310Y-104079800D01*
X166896162Y-103954151D01*
X166926366Y-103805000D01*
X166926366Y-103205000D01*
X166900148Y-103065663D01*
X166817800Y-102937690D01*
X166717774Y-102869345D01*
X166810310Y-102809800D01*
X166896162Y-102684151D01*
X166926366Y-102535000D01*
X166926366Y-101935000D01*
X166900148Y-101795663D01*
X166817800Y-101667690D01*
X166692151Y-101581838D01*
X166543000Y-101551634D01*
X164993000Y-101551634D01*
X164853663Y-101577852D01*
X164725690Y-101660200D01*
X164647934Y-101774000D01*
X164401952Y-101774000D01*
X164299318Y-101671366D01*
X164322000Y-101671366D01*
X164461337Y-101645148D01*
X164589310Y-101562800D01*
X164675162Y-101437151D01*
X164705366Y-101288000D01*
X164705366Y-100388000D01*
X164679148Y-100248663D01*
X164672882Y-100238926D01*
X165100000Y-100323885D01*
X165574374Y-100229526D01*
X165976530Y-99960815D01*
X166245241Y-99558659D01*
X166339600Y-99084285D01*
X166339600Y-99035715D01*
X166245241Y-98561341D01*
X165976530Y-98159185D01*
X165574374Y-97890474D01*
X165100000Y-97796115D01*
X164625626Y-97890474D01*
X164258705Y-98135642D01*
X164255908Y-98121583D01*
X164155976Y-97972024D01*
X163186023Y-97002071D01*
X163186108Y-96904027D01*
X163091006Y-96673863D01*
X162915063Y-96497613D01*
X162685065Y-96402109D01*
X162436027Y-96401892D01*
X162205863Y-96496994D01*
X162029613Y-96672937D01*
X161934109Y-96902935D01*
X161933892Y-97151973D01*
X162028994Y-97382137D01*
X162204937Y-97558387D01*
X162434935Y-97653891D01*
X162534025Y-97653977D01*
X162705007Y-97824959D01*
X162560000Y-97796115D01*
X162085626Y-97890474D01*
X161718705Y-98135642D01*
X161715908Y-98121583D01*
X161615976Y-97972024D01*
X160646023Y-97002071D01*
X160646108Y-96904027D01*
X160551006Y-96673863D01*
X160375063Y-96497613D01*
X160145065Y-96402109D01*
X159896027Y-96401892D01*
X159665863Y-96496994D01*
X159489613Y-96672937D01*
X159394109Y-96902935D01*
X159393892Y-97151973D01*
X159488994Y-97382137D01*
X159664937Y-97558387D01*
X159894935Y-97653891D01*
X159994025Y-97653977D01*
X160165007Y-97824959D01*
X160020000Y-97796115D01*
X159545626Y-97890474D01*
X159143470Y-98159185D01*
X158874759Y-98561341D01*
X158780400Y-99035715D01*
X158780400Y-99084285D01*
X158874759Y-99558659D01*
X159039000Y-99804464D01*
X159039000Y-100091112D01*
X158960663Y-100105852D01*
X158832690Y-100188200D01*
X158746838Y-100313849D01*
X158716634Y-100463000D01*
X158716634Y-100981414D01*
X158676000Y-101022048D01*
X158676000Y-100981000D01*
X158607000Y-100912000D01*
X158074000Y-100912000D01*
X158074000Y-100932000D01*
X157926000Y-100932000D01*
X157926000Y-100912000D01*
X157906000Y-100912000D01*
X157906000Y-100764000D01*
X157926000Y-100764000D01*
X157926000Y-100744000D01*
X158074000Y-100744000D01*
X158074000Y-100764000D01*
X158607000Y-100764000D01*
X158676000Y-100695000D01*
X158676000Y-100408100D01*
X158633982Y-100306659D01*
X158556342Y-100229019D01*
X158454900Y-100187000D01*
X158428919Y-100187000D01*
X158499941Y-100157582D01*
X158577581Y-100079942D01*
X158619600Y-99978500D01*
X158619600Y-99203000D01*
X158550600Y-99134000D01*
X157554000Y-99134000D01*
X157554000Y-100130600D01*
X157610400Y-100187000D01*
X157545100Y-100187000D01*
X157448872Y-100226859D01*
X157431148Y-100132663D01*
X157406000Y-100093582D01*
X157406000Y-99134000D01*
X156409400Y-99134000D01*
X156340400Y-99203000D01*
X156340400Y-99321001D01*
X156311063Y-99291613D01*
X156081065Y-99196109D01*
X155832027Y-99195892D01*
X155645000Y-99273170D01*
X155645000Y-98141500D01*
X156340400Y-98141500D01*
X156340400Y-98917000D01*
X156409400Y-98986000D01*
X157406000Y-98986000D01*
X157406000Y-97989400D01*
X157554000Y-97989400D01*
X157554000Y-98986000D01*
X158550600Y-98986000D01*
X158619600Y-98917000D01*
X158619600Y-98141500D01*
X158577581Y-98040058D01*
X158499941Y-97962418D01*
X158398500Y-97920400D01*
X157623000Y-97920400D01*
X157554000Y-97989400D01*
X157406000Y-97989400D01*
X157337000Y-97920400D01*
X156561500Y-97920400D01*
X156460059Y-97962418D01*
X156382419Y-98040058D01*
X156340400Y-98141500D01*
X155645000Y-98141500D01*
X155645000Y-88436419D01*
X155676837Y-88276367D01*
X155742337Y-88178338D01*
X155840368Y-88112836D01*
X156000419Y-88081000D01*
X166579581Y-88081000D01*
X166739633Y-88112837D01*
X166739633Y-88112837D01*
G37*
X166739633Y-88112837D02*
X166837662Y-88178337D01*
X166903164Y-88276368D01*
X166935000Y-88436419D01*
X166935000Y-110445581D01*
X166903164Y-110605632D01*
X166837662Y-110703663D01*
X166739633Y-110769163D01*
X166579581Y-110801000D01*
X161036000Y-110801000D01*
X160992434Y-110809666D01*
X160948014Y-110809666D01*
X160656409Y-110867670D01*
X160656408Y-110867670D01*
X160633867Y-110877007D01*
X160493833Y-110935011D01*
X160493832Y-110935012D01*
X160246624Y-111100191D01*
X160246623Y-111100192D01*
X160122192Y-111224622D01*
X159957012Y-111471832D01*
X159957011Y-111471833D01*
X159944283Y-111502562D01*
X159892742Y-111626993D01*
X159889670Y-111634409D01*
X159831666Y-111926014D01*
X159655822Y-112810043D01*
X159204898Y-113484898D01*
X158530044Y-113935821D01*
X157734000Y-114094164D01*
X156937957Y-113935822D01*
X156263102Y-113484898D01*
X155812179Y-112810044D01*
X155711980Y-112306307D01*
X156257744Y-112306307D01*
X156481978Y-112848995D01*
X156896821Y-113264563D01*
X157439117Y-113489744D01*
X158026307Y-113490256D01*
X158568995Y-113266022D01*
X158984563Y-112851179D01*
X159209744Y-112308883D01*
X159210256Y-111721693D01*
X158986022Y-111179005D01*
X158571179Y-110763437D01*
X158028883Y-110538256D01*
X157441693Y-110537744D01*
X156899005Y-110761978D01*
X156483437Y-111176821D01*
X156258256Y-111719117D01*
X156257744Y-112306307D01*
X155711980Y-112306307D01*
X155645000Y-111969581D01*
X155645000Y-107672966D01*
X155749000Y-107672966D01*
X155749000Y-107950000D01*
X155784092Y-108126417D01*
X155884024Y-108275976D01*
X156233034Y-108624986D01*
X156233034Y-110083600D01*
X156259252Y-110222937D01*
X156341600Y-110350910D01*
X156467249Y-110436762D01*
X156616400Y-110466966D01*
X158343600Y-110466966D01*
X158482937Y-110440748D01*
X158610910Y-110358400D01*
X158696762Y-110232751D01*
X158726966Y-110083600D01*
X158726966Y-108578918D01*
X158873868Y-108725820D01*
X158780400Y-109195715D01*
X158780400Y-109244285D01*
X158874759Y-109718659D01*
X159143470Y-110120815D01*
X159545626Y-110389526D01*
X160020000Y-110483885D01*
X160494374Y-110389526D01*
X160896530Y-110120815D01*
X161165241Y-109718659D01*
X161259600Y-109244285D01*
X161259600Y-109195715D01*
X161320400Y-109195715D01*
X161320400Y-109244285D01*
X161414759Y-109718659D01*
X161683470Y-110120815D01*
X162085626Y-110389526D01*
X162560000Y-110483885D01*
X163034374Y-110389526D01*
X163436530Y-110120815D01*
X163705241Y-109718659D01*
X163799600Y-109244285D01*
X163799600Y-109195715D01*
X163705241Y-108721341D01*
X163436530Y-108319185D01*
X163034374Y-108050474D01*
X162560000Y-107956115D01*
X162085626Y-108050474D01*
X161683470Y-108319185D01*
X161414759Y-108721341D01*
X161320400Y-109195715D01*
X161259600Y-109195715D01*
X161165241Y-108721341D01*
X160896530Y-108319185D01*
X160494374Y-108050474D01*
X160020000Y-107956115D01*
X159545626Y-108050474D01*
X159519729Y-108067777D01*
X158703000Y-107251048D01*
X158703000Y-105267296D01*
X158831337Y-105243148D01*
X158959310Y-105160800D01*
X159002903Y-105097000D01*
X159213774Y-105097000D01*
X159235852Y-105214337D01*
X159318200Y-105342310D01*
X159418226Y-105410655D01*
X159325690Y-105470200D01*
X159239838Y-105595849D01*
X159209634Y-105745000D01*
X159209634Y-106345000D01*
X159235852Y-106484337D01*
X159318200Y-106612310D01*
X159443849Y-106698162D01*
X159593000Y-106728366D01*
X161143000Y-106728366D01*
X161282337Y-106702148D01*
X161410310Y-106619800D01*
X161488066Y-106506000D01*
X161734048Y-106506000D01*
X163953868Y-108725820D01*
X163860400Y-109195715D01*
X163860400Y-109244285D01*
X163954759Y-109718659D01*
X164223470Y-110120815D01*
X164625626Y-110389526D01*
X165100000Y-110483885D01*
X165574374Y-110389526D01*
X165976530Y-110120815D01*
X166245241Y-109718659D01*
X166339600Y-109244285D01*
X166339600Y-109195715D01*
X166245241Y-108721341D01*
X165976530Y-108319185D01*
X165574374Y-108050474D01*
X165100000Y-107956115D01*
X164625626Y-108050474D01*
X164599729Y-108067777D01*
X163837959Y-107306007D01*
X163953973Y-107306108D01*
X164184137Y-107211006D01*
X164360387Y-107035063D01*
X164455891Y-106805065D01*
X164455977Y-106705975D01*
X164652204Y-106509749D01*
X164718200Y-106612310D01*
X164843849Y-106698162D01*
X164993000Y-106728366D01*
X166543000Y-106728366D01*
X166682337Y-106702148D01*
X166810310Y-106619800D01*
X166896162Y-106494151D01*
X166926366Y-106345000D01*
X166926366Y-105745000D01*
X166900148Y-105605663D01*
X166817800Y-105477690D01*
X166717774Y-105409345D01*
X166810310Y-105349800D01*
X166896162Y-105224151D01*
X166926366Y-105075000D01*
X166926366Y-104475000D01*
X166900148Y-104335663D01*
X166817800Y-104207690D01*
X166717774Y-104139345D01*
X166810310Y-104079800D01*
X166896162Y-103954151D01*
X166926366Y-103805000D01*
X166926366Y-103205000D01*
X166900148Y-103065663D01*
X166817800Y-102937690D01*
X166717774Y-102869345D01*
X166810310Y-102809800D01*
X166896162Y-102684151D01*
X166926366Y-102535000D01*
X166926366Y-101935000D01*
X166900148Y-101795663D01*
X166817800Y-101667690D01*
X166692151Y-101581838D01*
X166543000Y-101551634D01*
X164993000Y-101551634D01*
X164853663Y-101577852D01*
X164725690Y-101660200D01*
X164647934Y-101774000D01*
X164401952Y-101774000D01*
X164299318Y-101671366D01*
X164322000Y-101671366D01*
X164461337Y-101645148D01*
X164589310Y-101562800D01*
X164675162Y-101437151D01*
X164705366Y-101288000D01*
X164705366Y-100388000D01*
X164679148Y-100248663D01*
X164672882Y-100238926D01*
X165100000Y-100323885D01*
X165574374Y-100229526D01*
X165976530Y-99960815D01*
X166245241Y-99558659D01*
X166339600Y-99084285D01*
X166339600Y-99035715D01*
X166245241Y-98561341D01*
X165976530Y-98159185D01*
X165574374Y-97890474D01*
X165100000Y-97796115D01*
X164625626Y-97890474D01*
X164258705Y-98135642D01*
X164255908Y-98121583D01*
X164155976Y-97972024D01*
X163186023Y-97002071D01*
X163186108Y-96904027D01*
X163091006Y-96673863D01*
X162915063Y-96497613D01*
X162685065Y-96402109D01*
X162436027Y-96401892D01*
X162205863Y-96496994D01*
X162029613Y-96672937D01*
X161934109Y-96902935D01*
X161933892Y-97151973D01*
X162028994Y-97382137D01*
X162204937Y-97558387D01*
X162434935Y-97653891D01*
X162534025Y-97653977D01*
X162705007Y-97824959D01*
X162560000Y-97796115D01*
X162085626Y-97890474D01*
X161718705Y-98135642D01*
X161715908Y-98121583D01*
X161615976Y-97972024D01*
X160646023Y-97002071D01*
X160646108Y-96904027D01*
X160551006Y-96673863D01*
X160375063Y-96497613D01*
X160145065Y-96402109D01*
X159896027Y-96401892D01*
X159665863Y-96496994D01*
X159489613Y-96672937D01*
X159394109Y-96902935D01*
X159393892Y-97151973D01*
X159488994Y-97382137D01*
X159664937Y-97558387D01*
X159894935Y-97653891D01*
X159994025Y-97653977D01*
X160165007Y-97824959D01*
X160020000Y-97796115D01*
X159545626Y-97890474D01*
X159143470Y-98159185D01*
X158874759Y-98561341D01*
X158780400Y-99035715D01*
X158780400Y-99084285D01*
X158874759Y-99558659D01*
X159039000Y-99804464D01*
X159039000Y-100091112D01*
X158960663Y-100105852D01*
X158832690Y-100188200D01*
X158746838Y-100313849D01*
X158716634Y-100463000D01*
X158716634Y-100981414D01*
X158676000Y-101022048D01*
X158676000Y-100981000D01*
X158607000Y-100912000D01*
X158074000Y-100912000D01*
X158074000Y-100932000D01*
X157926000Y-100932000D01*
X157926000Y-100912000D01*
X157906000Y-100912000D01*
X157906000Y-100764000D01*
X157926000Y-100764000D01*
X157926000Y-100744000D01*
X158074000Y-100744000D01*
X158074000Y-100764000D01*
X158607000Y-100764000D01*
X158676000Y-100695000D01*
X158676000Y-100408100D01*
X158633982Y-100306659D01*
X158556342Y-100229019D01*
X158454900Y-100187000D01*
X158428919Y-100187000D01*
X158499941Y-100157582D01*
X158577581Y-100079942D01*
X158619600Y-99978500D01*
X158619600Y-99203000D01*
X158550600Y-99134000D01*
X157554000Y-99134000D01*
X157554000Y-100130600D01*
X157610400Y-100187000D01*
X157545100Y-100187000D01*
X157448872Y-100226859D01*
X157431148Y-100132663D01*
X157406000Y-100093582D01*
X157406000Y-99134000D01*
X156409400Y-99134000D01*
X156340400Y-99203000D01*
X156340400Y-99321001D01*
X156311063Y-99291613D01*
X156081065Y-99196109D01*
X155832027Y-99195892D01*
X155645000Y-99273170D01*
X155645000Y-98141500D01*
X156340400Y-98141500D01*
X156340400Y-98917000D01*
X156409400Y-98986000D01*
X157406000Y-98986000D01*
X157406000Y-97989400D01*
X157554000Y-97989400D01*
X157554000Y-98986000D01*
X158550600Y-98986000D01*
X158619600Y-98917000D01*
X158619600Y-98141500D01*
X158577581Y-98040058D01*
X158499941Y-97962418D01*
X158398500Y-97920400D01*
X157623000Y-97920400D01*
X157554000Y-97989400D01*
X157406000Y-97989400D01*
X157337000Y-97920400D01*
X156561500Y-97920400D01*
X156460059Y-97962418D01*
X156382419Y-98040058D01*
X156340400Y-98141500D01*
X155645000Y-98141500D01*
X155645000Y-88436419D01*
X155676837Y-88276367D01*
X155742337Y-88178338D01*
X155840368Y-88112836D01*
X156000419Y-88081000D01*
X166579581Y-88081000D01*
X166739633Y-88112837D01*
G36*
X162111000Y-102159048D02*
X161367040Y-102903008D01*
X161292151Y-102851838D01*
X161143000Y-102821634D01*
X159593000Y-102821634D01*
X159453663Y-102847852D01*
X159325690Y-102930200D01*
X159239838Y-103055849D01*
X159209634Y-103205000D01*
X159209634Y-103805000D01*
X159235852Y-103944337D01*
X159318200Y-104072310D01*
X159418226Y-104140655D01*
X159364852Y-104175000D01*
X159003034Y-104175000D01*
X158966800Y-104118690D01*
X158841151Y-104032838D01*
X158692000Y-104002634D01*
X157792000Y-104002634D01*
X157652663Y-104028852D01*
X157524690Y-104111200D01*
X157457366Y-104209732D01*
X157457366Y-103560325D01*
X157517200Y-103653310D01*
X157642849Y-103739162D01*
X157792000Y-103769366D01*
X158692000Y-103769366D01*
X158831337Y-103743148D01*
X158959310Y-103660800D01*
X159045162Y-103535151D01*
X159075366Y-103386000D01*
X159075366Y-102886000D01*
X159049148Y-102746663D01*
X158966800Y-102618690D01*
X158921924Y-102588028D01*
X159131952Y-102378000D01*
X159317000Y-102378000D01*
X159317000Y-102589900D01*
X159359018Y-102691341D01*
X159436658Y-102768981D01*
X159538100Y-102811000D01*
X160225000Y-102811000D01*
X160294000Y-102742000D01*
X160294000Y-102309000D01*
X160442000Y-102309000D01*
X160442000Y-102742000D01*
X160511000Y-102811000D01*
X161197900Y-102811000D01*
X161299342Y-102768981D01*
X161376982Y-102691341D01*
X161419000Y-102589900D01*
X161419000Y-102378000D01*
X161350000Y-102309000D01*
X160442000Y-102309000D01*
X160294000Y-102309000D01*
X159386000Y-102309000D01*
X159317000Y-102378000D01*
X159131952Y-102378000D01*
X159367476Y-102142476D01*
X159386000Y-102161000D01*
X160294000Y-102161000D01*
X160294000Y-102141000D01*
X160442000Y-102141000D01*
X160442000Y-102161000D01*
X161350000Y-102161000D01*
X161419000Y-102092000D01*
X161419000Y-101880100D01*
X161415735Y-101872217D01*
X161616586Y-101671366D01*
X162036000Y-101671366D01*
X162111000Y-101657254D01*
X162111000Y-102159048D01*
X162111000Y-102159048D01*
G37*
X162111000Y-102159048D02*
X161367040Y-102903008D01*
X161292151Y-102851838D01*
X161143000Y-102821634D01*
X159593000Y-102821634D01*
X159453663Y-102847852D01*
X159325690Y-102930200D01*
X159239838Y-103055849D01*
X159209634Y-103205000D01*
X159209634Y-103805000D01*
X159235852Y-103944337D01*
X159318200Y-104072310D01*
X159418226Y-104140655D01*
X159364852Y-104175000D01*
X159003034Y-104175000D01*
X158966800Y-104118690D01*
X158841151Y-104032838D01*
X158692000Y-104002634D01*
X157792000Y-104002634D01*
X157652663Y-104028852D01*
X157524690Y-104111200D01*
X157457366Y-104209732D01*
X157457366Y-103560325D01*
X157517200Y-103653310D01*
X157642849Y-103739162D01*
X157792000Y-103769366D01*
X158692000Y-103769366D01*
X158831337Y-103743148D01*
X158959310Y-103660800D01*
X159045162Y-103535151D01*
X159075366Y-103386000D01*
X159075366Y-102886000D01*
X159049148Y-102746663D01*
X158966800Y-102618690D01*
X158921924Y-102588028D01*
X159131952Y-102378000D01*
X159317000Y-102378000D01*
X159317000Y-102589900D01*
X159359018Y-102691341D01*
X159436658Y-102768981D01*
X159538100Y-102811000D01*
X160225000Y-102811000D01*
X160294000Y-102742000D01*
X160294000Y-102309000D01*
X160442000Y-102309000D01*
X160442000Y-102742000D01*
X160511000Y-102811000D01*
X161197900Y-102811000D01*
X161299342Y-102768981D01*
X161376982Y-102691341D01*
X161419000Y-102589900D01*
X161419000Y-102378000D01*
X161350000Y-102309000D01*
X160442000Y-102309000D01*
X160294000Y-102309000D01*
X159386000Y-102309000D01*
X159317000Y-102378000D01*
X159131952Y-102378000D01*
X159367476Y-102142476D01*
X159386000Y-102161000D01*
X160294000Y-102161000D01*
X160294000Y-102141000D01*
X160442000Y-102141000D01*
X160442000Y-102161000D01*
X161350000Y-102161000D01*
X161419000Y-102092000D01*
X161419000Y-101880100D01*
X161415735Y-101872217D01*
X161616586Y-101671366D01*
X162036000Y-101671366D01*
X162111000Y-101657254D01*
X162111000Y-102159048D01*
M02*
