G04 #@! TF.FileFunction,Copper,L1,Top,Signal*
%FSLAX46Y46*%
G04 Gerber Fmt 4.6, Leading zero omitted, Abs format (unit mm)*
G04 Created by KiCad (PCBNEW 4.0.2-stable) date Thu Jun 16 03:15:18 2016*
%MOMM*%
G01*
G04 APERTURE LIST*
%ADD10C,0.100000*%
%ADD11R,1.900000X8.000000*%
%ADD12R,2.000000X7.500000*%
%ADD13R,1.600000X1.000000*%
%ADD14R,1.727200X1.727200*%
%ADD15O,1.727200X1.727200*%
%ADD16C,0.500000*%
%ADD17C,0.170000*%
%ADD18C,0.152000*%
G04 APERTURE END LIST*
D10*
D11*
X157480000Y-92530000D03*
X165100000Y-92530000D03*
D12*
X162590000Y-92780000D03*
X159990000Y-92780000D03*
D13*
X158790000Y-102540000D03*
X158790000Y-105740000D03*
X163790000Y-102540000D03*
X163790000Y-105740000D03*
D14*
X157480000Y-99060000D03*
D15*
X160020000Y-99060000D03*
X162560000Y-99060000D03*
X165100000Y-99060000D03*
D14*
X157480000Y-109220000D03*
D15*
X160020000Y-109220000D03*
X162560000Y-109220000D03*
X165100000Y-109220000D03*
D16*
X163830000Y-106680000D03*
X161671000Y-102489000D03*
X155956000Y-99822000D03*
X161798000Y-103886000D03*
X164084000Y-104140000D03*
X161798000Y-105410000D03*
X162560000Y-97028000D03*
X160020000Y-97028000D03*
X157353000Y-105537000D03*
D17*
X163790000Y-105740000D02*
X163790000Y-106640000D01*
X163790000Y-106640000D02*
X163830000Y-106680000D01*
X163790000Y-105740000D02*
X163790000Y-104989000D01*
X162179000Y-101219000D02*
X160020000Y-99060000D01*
X162179000Y-103378000D02*
X162179000Y-101219000D01*
X163790000Y-104989000D02*
X162179000Y-103378000D01*
X158790000Y-102540000D02*
X161620000Y-102540000D01*
X161620000Y-102540000D02*
X161671000Y-102489000D01*
X157480000Y-99060000D02*
X157480000Y-101230000D01*
X157480000Y-101230000D02*
X158790000Y-102540000D01*
X165100000Y-92530000D02*
X165100000Y-97028000D01*
X159004000Y-97536000D02*
X157480000Y-99060000D01*
X164592000Y-97536000D02*
X159004000Y-97536000D01*
X165100000Y-97028000D02*
X164592000Y-97536000D01*
X157480000Y-92530000D02*
X157480000Y-97028000D01*
X155956000Y-98044000D02*
X155956000Y-99822000D01*
X156464000Y-97536000D02*
X155956000Y-98044000D01*
X156972000Y-97536000D02*
X156464000Y-97536000D01*
X157480000Y-97028000D02*
X156972000Y-97536000D01*
X162560000Y-104648000D02*
X162560000Y-109220000D01*
X161798000Y-103886000D02*
X162560000Y-104648000D01*
X165100000Y-103124000D02*
X165100000Y-99060000D01*
X164084000Y-104140000D02*
X165100000Y-103124000D01*
X161798000Y-105410000D02*
X157988000Y-109220000D01*
X157988000Y-109220000D02*
X157480000Y-109220000D01*
X162590000Y-92780000D02*
X162590000Y-96998000D01*
X162590000Y-96998000D02*
X162560000Y-97028000D01*
X159990000Y-92780000D02*
X159990000Y-96998000D01*
X159990000Y-96998000D02*
X160020000Y-97028000D01*
X158790000Y-105740000D02*
X157556000Y-105740000D01*
X157556000Y-105740000D02*
X157353000Y-105537000D01*
D18*
G36*
X166739633Y-88112837D02*
X166837662Y-88178337D01*
X166903164Y-88276368D01*
X166935000Y-88436419D01*
X166935000Y-110445581D01*
X166903164Y-110605632D01*
X166837662Y-110703663D01*
X166739633Y-110769163D01*
X166579581Y-110801000D01*
X161036000Y-110801000D01*
X160992434Y-110809666D01*
X160948014Y-110809666D01*
X160656409Y-110867670D01*
X160656408Y-110867670D01*
X160633867Y-110877007D01*
X160493833Y-110935011D01*
X160493832Y-110935012D01*
X160246624Y-111100191D01*
X160246623Y-111100192D01*
X160122192Y-111224622D01*
X159957012Y-111471832D01*
X159957011Y-111471833D01*
X159944283Y-111502562D01*
X159892742Y-111626993D01*
X159889670Y-111634409D01*
X159831666Y-111926014D01*
X159655822Y-112810043D01*
X159204898Y-113484898D01*
X158530044Y-113935821D01*
X157734000Y-114094164D01*
X156937957Y-113935822D01*
X156263102Y-113484898D01*
X155812179Y-112810044D01*
X155711980Y-112306307D01*
X156257744Y-112306307D01*
X156481978Y-112848995D01*
X156896821Y-113264563D01*
X157439117Y-113489744D01*
X158026307Y-113490256D01*
X158568995Y-113266022D01*
X158984563Y-112851179D01*
X159209744Y-112308883D01*
X159210256Y-111721693D01*
X158986022Y-111179005D01*
X158571179Y-110763437D01*
X158028883Y-110538256D01*
X157441693Y-110537744D01*
X156899005Y-110761978D01*
X156483437Y-111176821D01*
X156258256Y-111719117D01*
X156257744Y-112306307D01*
X155711980Y-112306307D01*
X155645000Y-111969581D01*
X155645000Y-108356400D01*
X156233034Y-108356400D01*
X156233034Y-110083600D01*
X156259252Y-110222937D01*
X156341600Y-110350910D01*
X156467249Y-110436762D01*
X156616400Y-110466966D01*
X158343600Y-110466966D01*
X158482937Y-110440748D01*
X158610910Y-110358400D01*
X158696762Y-110232751D01*
X158726966Y-110083600D01*
X158726966Y-109132986D01*
X158809244Y-109050708D01*
X158780400Y-109195715D01*
X158780400Y-109244285D01*
X158874759Y-109718659D01*
X159143470Y-110120815D01*
X159545626Y-110389526D01*
X160020000Y-110483885D01*
X160494374Y-110389526D01*
X160896530Y-110120815D01*
X161165241Y-109718659D01*
X161259600Y-109244285D01*
X161259600Y-109195715D01*
X161165241Y-108721341D01*
X160896530Y-108319185D01*
X160494374Y-108050474D01*
X160020000Y-107956115D01*
X159874993Y-107984959D01*
X161823929Y-106036023D01*
X161921973Y-106036108D01*
X162099000Y-105962962D01*
X162099000Y-108047814D01*
X162085626Y-108050474D01*
X161683470Y-108319185D01*
X161414759Y-108721341D01*
X161320400Y-109195715D01*
X161320400Y-109244285D01*
X161414759Y-109718659D01*
X161683470Y-110120815D01*
X162085626Y-110389526D01*
X162560000Y-110483885D01*
X163034374Y-110389526D01*
X163436530Y-110120815D01*
X163705241Y-109718659D01*
X163799600Y-109244285D01*
X163799600Y-109195715D01*
X163860400Y-109195715D01*
X163860400Y-109244285D01*
X163954759Y-109718659D01*
X164223470Y-110120815D01*
X164625626Y-110389526D01*
X165100000Y-110483885D01*
X165574374Y-110389526D01*
X165976530Y-110120815D01*
X166245241Y-109718659D01*
X166339600Y-109244285D01*
X166339600Y-109195715D01*
X166245241Y-108721341D01*
X165976530Y-108319185D01*
X165574374Y-108050474D01*
X165100000Y-107956115D01*
X164625626Y-108050474D01*
X164223470Y-108319185D01*
X163954759Y-108721341D01*
X163860400Y-109195715D01*
X163799600Y-109195715D01*
X163705241Y-108721341D01*
X163436530Y-108319185D01*
X163034374Y-108050474D01*
X163021000Y-108047814D01*
X163021000Y-106623366D01*
X163204049Y-106623366D01*
X163203892Y-106803973D01*
X163298994Y-107034137D01*
X163474937Y-107210387D01*
X163704935Y-107305891D01*
X163953973Y-107306108D01*
X164184137Y-107211006D01*
X164360387Y-107035063D01*
X164455891Y-106805065D01*
X164456049Y-106623366D01*
X164590000Y-106623366D01*
X164729337Y-106597148D01*
X164857310Y-106514800D01*
X164943162Y-106389151D01*
X164973366Y-106240000D01*
X164973366Y-105240000D01*
X164947148Y-105100663D01*
X164864800Y-104972690D01*
X164739151Y-104886838D01*
X164590000Y-104856634D01*
X164224670Y-104856634D01*
X164215908Y-104812583D01*
X164184841Y-104766088D01*
X164207973Y-104766108D01*
X164438137Y-104671006D01*
X164614387Y-104495063D01*
X164709891Y-104265065D01*
X164709977Y-104165975D01*
X165425976Y-103449976D01*
X165525908Y-103300417D01*
X165561000Y-103124000D01*
X165561000Y-100232186D01*
X165574374Y-100229526D01*
X165976530Y-99960815D01*
X166245241Y-99558659D01*
X166339600Y-99084285D01*
X166339600Y-99035715D01*
X166245241Y-98561341D01*
X165976530Y-98159185D01*
X165574374Y-97890474D01*
X165100000Y-97796115D01*
X164625626Y-97890474D01*
X164223470Y-98159185D01*
X163954759Y-98561341D01*
X163860400Y-99035715D01*
X163860400Y-99084285D01*
X163954759Y-99558659D01*
X164223470Y-99960815D01*
X164625626Y-100229526D01*
X164639000Y-100232186D01*
X164639000Y-101666557D01*
X164590000Y-101656634D01*
X162990000Y-101656634D01*
X162850663Y-101682852D01*
X162722690Y-101765200D01*
X162640000Y-101886221D01*
X162640000Y-101219000D01*
X162604908Y-101042583D01*
X162504976Y-100893024D01*
X161166132Y-99554180D01*
X161259600Y-99084285D01*
X161259600Y-99035715D01*
X161320400Y-99035715D01*
X161320400Y-99084285D01*
X161414759Y-99558659D01*
X161683470Y-99960815D01*
X162085626Y-100229526D01*
X162560000Y-100323885D01*
X163034374Y-100229526D01*
X163436530Y-99960815D01*
X163705241Y-99558659D01*
X163799600Y-99084285D01*
X163799600Y-99035715D01*
X163705241Y-98561341D01*
X163436530Y-98159185D01*
X163034374Y-97890474D01*
X162560000Y-97796115D01*
X162085626Y-97890474D01*
X161683470Y-98159185D01*
X161414759Y-98561341D01*
X161320400Y-99035715D01*
X161259600Y-99035715D01*
X161165241Y-98561341D01*
X160896530Y-98159185D01*
X160494374Y-97890474D01*
X160020000Y-97796115D01*
X159545626Y-97890474D01*
X159143470Y-98159185D01*
X158874759Y-98561341D01*
X158780400Y-99035715D01*
X158780400Y-99084285D01*
X158874759Y-99558659D01*
X159143470Y-99960815D01*
X159545626Y-100229526D01*
X160020000Y-100323885D01*
X160494374Y-100229526D01*
X160520271Y-100212223D01*
X161718000Y-101409952D01*
X161718000Y-103259930D01*
X161674027Y-103259892D01*
X161443863Y-103354994D01*
X161267613Y-103530937D01*
X161172109Y-103760935D01*
X161171892Y-104009973D01*
X161266994Y-104240137D01*
X161442937Y-104416387D01*
X161672935Y-104511891D01*
X161772025Y-104511977D01*
X162099000Y-104838952D01*
X162099000Y-104857164D01*
X161923065Y-104784109D01*
X161674027Y-104783892D01*
X161443863Y-104878994D01*
X161267613Y-105054937D01*
X161172109Y-105284935D01*
X161172023Y-105384025D01*
X158528431Y-108027617D01*
X158492751Y-108003238D01*
X158343600Y-107973034D01*
X156616400Y-107973034D01*
X156477063Y-107999252D01*
X156349090Y-108081600D01*
X156263238Y-108207249D01*
X156233034Y-108356400D01*
X155645000Y-108356400D01*
X155645000Y-105660973D01*
X156726892Y-105660973D01*
X156821994Y-105891137D01*
X156997937Y-106067387D01*
X157227935Y-106162891D01*
X157375260Y-106163019D01*
X157379583Y-106165908D01*
X157556000Y-106201000D01*
X157606634Y-106201000D01*
X157606634Y-106240000D01*
X157632852Y-106379337D01*
X157715200Y-106507310D01*
X157840849Y-106593162D01*
X157990000Y-106623366D01*
X159590000Y-106623366D01*
X159729337Y-106597148D01*
X159857310Y-106514800D01*
X159943162Y-106389151D01*
X159973366Y-106240000D01*
X159973366Y-105240000D01*
X159947148Y-105100663D01*
X159864800Y-104972690D01*
X159739151Y-104886838D01*
X159590000Y-104856634D01*
X157990000Y-104856634D01*
X157850663Y-104882852D01*
X157722690Y-104965200D01*
X157697415Y-105002191D01*
X157478065Y-104911109D01*
X157229027Y-104910892D01*
X156998863Y-105005994D01*
X156822613Y-105181937D01*
X156727109Y-105411935D01*
X156726892Y-105660973D01*
X155645000Y-105660973D01*
X155645000Y-102683000D01*
X157714000Y-102683000D01*
X157714000Y-103094900D01*
X157756018Y-103196341D01*
X157833658Y-103273981D01*
X157935100Y-103316000D01*
X158647000Y-103316000D01*
X158716000Y-103247000D01*
X158716000Y-102614000D01*
X158864000Y-102614000D01*
X158864000Y-103247000D01*
X158933000Y-103316000D01*
X159644900Y-103316000D01*
X159746342Y-103273981D01*
X159823982Y-103196341D01*
X159866000Y-103094900D01*
X159866000Y-102683000D01*
X159797000Y-102614000D01*
X158864000Y-102614000D01*
X158716000Y-102614000D01*
X157783000Y-102614000D01*
X157714000Y-102683000D01*
X155645000Y-102683000D01*
X155645000Y-101985100D01*
X157714000Y-101985100D01*
X157714000Y-102397000D01*
X157783000Y-102466000D01*
X158716000Y-102466000D01*
X158716000Y-101833000D01*
X158864000Y-101833000D01*
X158864000Y-102466000D01*
X159797000Y-102466000D01*
X159866000Y-102397000D01*
X159866000Y-101985100D01*
X159823982Y-101883659D01*
X159746342Y-101806019D01*
X159644900Y-101764000D01*
X158933000Y-101764000D01*
X158864000Y-101833000D01*
X158716000Y-101833000D01*
X158647000Y-101764000D01*
X157935100Y-101764000D01*
X157833658Y-101806019D01*
X157756018Y-101883659D01*
X157714000Y-101985100D01*
X155645000Y-101985100D01*
X155645000Y-100370684D01*
X155830935Y-100447891D01*
X156079973Y-100448108D01*
X156310137Y-100353006D01*
X156486387Y-100177063D01*
X156489425Y-100169746D01*
X156561500Y-100199600D01*
X157337000Y-100199600D01*
X157406000Y-100130600D01*
X157406000Y-99134000D01*
X157554000Y-99134000D01*
X157554000Y-100130600D01*
X157623000Y-100199600D01*
X158398500Y-100199600D01*
X158499941Y-100157582D01*
X158577581Y-100079942D01*
X158619600Y-99978500D01*
X158619600Y-99203000D01*
X158550600Y-99134000D01*
X157554000Y-99134000D01*
X157406000Y-99134000D01*
X157386000Y-99134000D01*
X157386000Y-98986000D01*
X157406000Y-98986000D01*
X157406000Y-97989400D01*
X157554000Y-97989400D01*
X157554000Y-98986000D01*
X158550600Y-98986000D01*
X158619600Y-98917000D01*
X158619600Y-98141500D01*
X158577581Y-98040058D01*
X158499941Y-97962418D01*
X158398500Y-97920400D01*
X157623000Y-97920400D01*
X157554000Y-97989400D01*
X157406000Y-97989400D01*
X157337000Y-97920400D01*
X157210538Y-97920400D01*
X157297976Y-97861976D01*
X157805976Y-97353977D01*
X157905908Y-97204417D01*
X157911875Y-97174417D01*
X157941000Y-97028000D01*
X157941000Y-96913366D01*
X158430000Y-96913366D01*
X158569337Y-96887148D01*
X158697310Y-96804800D01*
X158709005Y-96787683D01*
X158715200Y-96797310D01*
X158840849Y-96883162D01*
X158990000Y-96913366D01*
X159394100Y-96913366D01*
X159393892Y-97151973D01*
X159488994Y-97382137D01*
X159664937Y-97558387D01*
X159894935Y-97653891D01*
X160143973Y-97654108D01*
X160374137Y-97559006D01*
X160550387Y-97383063D01*
X160645891Y-97153065D01*
X160646100Y-96913366D01*
X160990000Y-96913366D01*
X161129337Y-96887148D01*
X161257310Y-96804800D01*
X161289605Y-96757534D01*
X161315200Y-96797310D01*
X161440849Y-96883162D01*
X161590000Y-96913366D01*
X161934100Y-96913366D01*
X161933892Y-97151973D01*
X162028994Y-97382137D01*
X162204937Y-97558387D01*
X162434935Y-97653891D01*
X162683973Y-97654108D01*
X162914137Y-97559006D01*
X163090387Y-97383063D01*
X163185891Y-97153065D01*
X163186100Y-96913366D01*
X163590000Y-96913366D01*
X163729337Y-96887148D01*
X163857310Y-96804800D01*
X163929225Y-96699548D01*
X163993658Y-96763981D01*
X164095100Y-96806000D01*
X164957000Y-96806000D01*
X165026000Y-96737000D01*
X165026000Y-92604000D01*
X165174000Y-92604000D01*
X165174000Y-96737000D01*
X165243000Y-96806000D01*
X166104900Y-96806000D01*
X166206342Y-96763981D01*
X166283982Y-96686341D01*
X166326000Y-96584900D01*
X166326000Y-92673000D01*
X166257000Y-92604000D01*
X165174000Y-92604000D01*
X165026000Y-92604000D01*
X165006000Y-92604000D01*
X165006000Y-92456000D01*
X165026000Y-92456000D01*
X165026000Y-88323000D01*
X165174000Y-88323000D01*
X165174000Y-92456000D01*
X166257000Y-92456000D01*
X166326000Y-92387000D01*
X166326000Y-88475100D01*
X166283982Y-88373659D01*
X166206342Y-88296019D01*
X166104900Y-88254000D01*
X165243000Y-88254000D01*
X165174000Y-88323000D01*
X165026000Y-88323000D01*
X164957000Y-88254000D01*
X164095100Y-88254000D01*
X163993658Y-88296019D01*
X163916018Y-88373659D01*
X163874000Y-88475100D01*
X163874000Y-88776987D01*
X163864800Y-88762690D01*
X163739151Y-88676838D01*
X163590000Y-88646634D01*
X161590000Y-88646634D01*
X161450663Y-88672852D01*
X161322690Y-88755200D01*
X161290395Y-88802466D01*
X161264800Y-88762690D01*
X161139151Y-88676838D01*
X160990000Y-88646634D01*
X158990000Y-88646634D01*
X158850663Y-88672852D01*
X158813366Y-88696852D01*
X158813366Y-88530000D01*
X158787148Y-88390663D01*
X158704800Y-88262690D01*
X158579151Y-88176838D01*
X158430000Y-88146634D01*
X156530000Y-88146634D01*
X156390663Y-88172852D01*
X156262690Y-88255200D01*
X156176838Y-88380849D01*
X156146634Y-88530000D01*
X156146634Y-96530000D01*
X156172852Y-96669337D01*
X156255200Y-96797310D01*
X156380849Y-96883162D01*
X156530000Y-96913366D01*
X156942681Y-96913366D01*
X156781048Y-97075000D01*
X156464000Y-97075000D01*
X156287583Y-97110092D01*
X156138023Y-97210024D01*
X155645000Y-97703048D01*
X155645000Y-88436419D01*
X155676837Y-88276367D01*
X155742337Y-88178338D01*
X155840368Y-88112836D01*
X156000419Y-88081000D01*
X166579581Y-88081000D01*
X166739633Y-88112837D01*
X166739633Y-88112837D01*
G37*
X166739633Y-88112837D02*
X166837662Y-88178337D01*
X166903164Y-88276368D01*
X166935000Y-88436419D01*
X166935000Y-110445581D01*
X166903164Y-110605632D01*
X166837662Y-110703663D01*
X166739633Y-110769163D01*
X166579581Y-110801000D01*
X161036000Y-110801000D01*
X160992434Y-110809666D01*
X160948014Y-110809666D01*
X160656409Y-110867670D01*
X160656408Y-110867670D01*
X160633867Y-110877007D01*
X160493833Y-110935011D01*
X160493832Y-110935012D01*
X160246624Y-111100191D01*
X160246623Y-111100192D01*
X160122192Y-111224622D01*
X159957012Y-111471832D01*
X159957011Y-111471833D01*
X159944283Y-111502562D01*
X159892742Y-111626993D01*
X159889670Y-111634409D01*
X159831666Y-111926014D01*
X159655822Y-112810043D01*
X159204898Y-113484898D01*
X158530044Y-113935821D01*
X157734000Y-114094164D01*
X156937957Y-113935822D01*
X156263102Y-113484898D01*
X155812179Y-112810044D01*
X155711980Y-112306307D01*
X156257744Y-112306307D01*
X156481978Y-112848995D01*
X156896821Y-113264563D01*
X157439117Y-113489744D01*
X158026307Y-113490256D01*
X158568995Y-113266022D01*
X158984563Y-112851179D01*
X159209744Y-112308883D01*
X159210256Y-111721693D01*
X158986022Y-111179005D01*
X158571179Y-110763437D01*
X158028883Y-110538256D01*
X157441693Y-110537744D01*
X156899005Y-110761978D01*
X156483437Y-111176821D01*
X156258256Y-111719117D01*
X156257744Y-112306307D01*
X155711980Y-112306307D01*
X155645000Y-111969581D01*
X155645000Y-108356400D01*
X156233034Y-108356400D01*
X156233034Y-110083600D01*
X156259252Y-110222937D01*
X156341600Y-110350910D01*
X156467249Y-110436762D01*
X156616400Y-110466966D01*
X158343600Y-110466966D01*
X158482937Y-110440748D01*
X158610910Y-110358400D01*
X158696762Y-110232751D01*
X158726966Y-110083600D01*
X158726966Y-109132986D01*
X158809244Y-109050708D01*
X158780400Y-109195715D01*
X158780400Y-109244285D01*
X158874759Y-109718659D01*
X159143470Y-110120815D01*
X159545626Y-110389526D01*
X160020000Y-110483885D01*
X160494374Y-110389526D01*
X160896530Y-110120815D01*
X161165241Y-109718659D01*
X161259600Y-109244285D01*
X161259600Y-109195715D01*
X161165241Y-108721341D01*
X160896530Y-108319185D01*
X160494374Y-108050474D01*
X160020000Y-107956115D01*
X159874993Y-107984959D01*
X161823929Y-106036023D01*
X161921973Y-106036108D01*
X162099000Y-105962962D01*
X162099000Y-108047814D01*
X162085626Y-108050474D01*
X161683470Y-108319185D01*
X161414759Y-108721341D01*
X161320400Y-109195715D01*
X161320400Y-109244285D01*
X161414759Y-109718659D01*
X161683470Y-110120815D01*
X162085626Y-110389526D01*
X162560000Y-110483885D01*
X163034374Y-110389526D01*
X163436530Y-110120815D01*
X163705241Y-109718659D01*
X163799600Y-109244285D01*
X163799600Y-109195715D01*
X163860400Y-109195715D01*
X163860400Y-109244285D01*
X163954759Y-109718659D01*
X164223470Y-110120815D01*
X164625626Y-110389526D01*
X165100000Y-110483885D01*
X165574374Y-110389526D01*
X165976530Y-110120815D01*
X166245241Y-109718659D01*
X166339600Y-109244285D01*
X166339600Y-109195715D01*
X166245241Y-108721341D01*
X165976530Y-108319185D01*
X165574374Y-108050474D01*
X165100000Y-107956115D01*
X164625626Y-108050474D01*
X164223470Y-108319185D01*
X163954759Y-108721341D01*
X163860400Y-109195715D01*
X163799600Y-109195715D01*
X163705241Y-108721341D01*
X163436530Y-108319185D01*
X163034374Y-108050474D01*
X163021000Y-108047814D01*
X163021000Y-106623366D01*
X163204049Y-106623366D01*
X163203892Y-106803973D01*
X163298994Y-107034137D01*
X163474937Y-107210387D01*
X163704935Y-107305891D01*
X163953973Y-107306108D01*
X164184137Y-107211006D01*
X164360387Y-107035063D01*
X164455891Y-106805065D01*
X164456049Y-106623366D01*
X164590000Y-106623366D01*
X164729337Y-106597148D01*
X164857310Y-106514800D01*
X164943162Y-106389151D01*
X164973366Y-106240000D01*
X164973366Y-105240000D01*
X164947148Y-105100663D01*
X164864800Y-104972690D01*
X164739151Y-104886838D01*
X164590000Y-104856634D01*
X164224670Y-104856634D01*
X164215908Y-104812583D01*
X164184841Y-104766088D01*
X164207973Y-104766108D01*
X164438137Y-104671006D01*
X164614387Y-104495063D01*
X164709891Y-104265065D01*
X164709977Y-104165975D01*
X165425976Y-103449976D01*
X165525908Y-103300417D01*
X165561000Y-103124000D01*
X165561000Y-100232186D01*
X165574374Y-100229526D01*
X165976530Y-99960815D01*
X166245241Y-99558659D01*
X166339600Y-99084285D01*
X166339600Y-99035715D01*
X166245241Y-98561341D01*
X165976530Y-98159185D01*
X165574374Y-97890474D01*
X165100000Y-97796115D01*
X164625626Y-97890474D01*
X164223470Y-98159185D01*
X163954759Y-98561341D01*
X163860400Y-99035715D01*
X163860400Y-99084285D01*
X163954759Y-99558659D01*
X164223470Y-99960815D01*
X164625626Y-100229526D01*
X164639000Y-100232186D01*
X164639000Y-101666557D01*
X164590000Y-101656634D01*
X162990000Y-101656634D01*
X162850663Y-101682852D01*
X162722690Y-101765200D01*
X162640000Y-101886221D01*
X162640000Y-101219000D01*
X162604908Y-101042583D01*
X162504976Y-100893024D01*
X161166132Y-99554180D01*
X161259600Y-99084285D01*
X161259600Y-99035715D01*
X161320400Y-99035715D01*
X161320400Y-99084285D01*
X161414759Y-99558659D01*
X161683470Y-99960815D01*
X162085626Y-100229526D01*
X162560000Y-100323885D01*
X163034374Y-100229526D01*
X163436530Y-99960815D01*
X163705241Y-99558659D01*
X163799600Y-99084285D01*
X163799600Y-99035715D01*
X163705241Y-98561341D01*
X163436530Y-98159185D01*
X163034374Y-97890474D01*
X162560000Y-97796115D01*
X162085626Y-97890474D01*
X161683470Y-98159185D01*
X161414759Y-98561341D01*
X161320400Y-99035715D01*
X161259600Y-99035715D01*
X161165241Y-98561341D01*
X160896530Y-98159185D01*
X160494374Y-97890474D01*
X160020000Y-97796115D01*
X159545626Y-97890474D01*
X159143470Y-98159185D01*
X158874759Y-98561341D01*
X158780400Y-99035715D01*
X158780400Y-99084285D01*
X158874759Y-99558659D01*
X159143470Y-99960815D01*
X159545626Y-100229526D01*
X160020000Y-100323885D01*
X160494374Y-100229526D01*
X160520271Y-100212223D01*
X161718000Y-101409952D01*
X161718000Y-103259930D01*
X161674027Y-103259892D01*
X161443863Y-103354994D01*
X161267613Y-103530937D01*
X161172109Y-103760935D01*
X161171892Y-104009973D01*
X161266994Y-104240137D01*
X161442937Y-104416387D01*
X161672935Y-104511891D01*
X161772025Y-104511977D01*
X162099000Y-104838952D01*
X162099000Y-104857164D01*
X161923065Y-104784109D01*
X161674027Y-104783892D01*
X161443863Y-104878994D01*
X161267613Y-105054937D01*
X161172109Y-105284935D01*
X161172023Y-105384025D01*
X158528431Y-108027617D01*
X158492751Y-108003238D01*
X158343600Y-107973034D01*
X156616400Y-107973034D01*
X156477063Y-107999252D01*
X156349090Y-108081600D01*
X156263238Y-108207249D01*
X156233034Y-108356400D01*
X155645000Y-108356400D01*
X155645000Y-105660973D01*
X156726892Y-105660973D01*
X156821994Y-105891137D01*
X156997937Y-106067387D01*
X157227935Y-106162891D01*
X157375260Y-106163019D01*
X157379583Y-106165908D01*
X157556000Y-106201000D01*
X157606634Y-106201000D01*
X157606634Y-106240000D01*
X157632852Y-106379337D01*
X157715200Y-106507310D01*
X157840849Y-106593162D01*
X157990000Y-106623366D01*
X159590000Y-106623366D01*
X159729337Y-106597148D01*
X159857310Y-106514800D01*
X159943162Y-106389151D01*
X159973366Y-106240000D01*
X159973366Y-105240000D01*
X159947148Y-105100663D01*
X159864800Y-104972690D01*
X159739151Y-104886838D01*
X159590000Y-104856634D01*
X157990000Y-104856634D01*
X157850663Y-104882852D01*
X157722690Y-104965200D01*
X157697415Y-105002191D01*
X157478065Y-104911109D01*
X157229027Y-104910892D01*
X156998863Y-105005994D01*
X156822613Y-105181937D01*
X156727109Y-105411935D01*
X156726892Y-105660973D01*
X155645000Y-105660973D01*
X155645000Y-102683000D01*
X157714000Y-102683000D01*
X157714000Y-103094900D01*
X157756018Y-103196341D01*
X157833658Y-103273981D01*
X157935100Y-103316000D01*
X158647000Y-103316000D01*
X158716000Y-103247000D01*
X158716000Y-102614000D01*
X158864000Y-102614000D01*
X158864000Y-103247000D01*
X158933000Y-103316000D01*
X159644900Y-103316000D01*
X159746342Y-103273981D01*
X159823982Y-103196341D01*
X159866000Y-103094900D01*
X159866000Y-102683000D01*
X159797000Y-102614000D01*
X158864000Y-102614000D01*
X158716000Y-102614000D01*
X157783000Y-102614000D01*
X157714000Y-102683000D01*
X155645000Y-102683000D01*
X155645000Y-101985100D01*
X157714000Y-101985100D01*
X157714000Y-102397000D01*
X157783000Y-102466000D01*
X158716000Y-102466000D01*
X158716000Y-101833000D01*
X158864000Y-101833000D01*
X158864000Y-102466000D01*
X159797000Y-102466000D01*
X159866000Y-102397000D01*
X159866000Y-101985100D01*
X159823982Y-101883659D01*
X159746342Y-101806019D01*
X159644900Y-101764000D01*
X158933000Y-101764000D01*
X158864000Y-101833000D01*
X158716000Y-101833000D01*
X158647000Y-101764000D01*
X157935100Y-101764000D01*
X157833658Y-101806019D01*
X157756018Y-101883659D01*
X157714000Y-101985100D01*
X155645000Y-101985100D01*
X155645000Y-100370684D01*
X155830935Y-100447891D01*
X156079973Y-100448108D01*
X156310137Y-100353006D01*
X156486387Y-100177063D01*
X156489425Y-100169746D01*
X156561500Y-100199600D01*
X157337000Y-100199600D01*
X157406000Y-100130600D01*
X157406000Y-99134000D01*
X157554000Y-99134000D01*
X157554000Y-100130600D01*
X157623000Y-100199600D01*
X158398500Y-100199600D01*
X158499941Y-100157582D01*
X158577581Y-100079942D01*
X158619600Y-99978500D01*
X158619600Y-99203000D01*
X158550600Y-99134000D01*
X157554000Y-99134000D01*
X157406000Y-99134000D01*
X157386000Y-99134000D01*
X157386000Y-98986000D01*
X157406000Y-98986000D01*
X157406000Y-97989400D01*
X157554000Y-97989400D01*
X157554000Y-98986000D01*
X158550600Y-98986000D01*
X158619600Y-98917000D01*
X158619600Y-98141500D01*
X158577581Y-98040058D01*
X158499941Y-97962418D01*
X158398500Y-97920400D01*
X157623000Y-97920400D01*
X157554000Y-97989400D01*
X157406000Y-97989400D01*
X157337000Y-97920400D01*
X157210538Y-97920400D01*
X157297976Y-97861976D01*
X157805976Y-97353977D01*
X157905908Y-97204417D01*
X157911875Y-97174417D01*
X157941000Y-97028000D01*
X157941000Y-96913366D01*
X158430000Y-96913366D01*
X158569337Y-96887148D01*
X158697310Y-96804800D01*
X158709005Y-96787683D01*
X158715200Y-96797310D01*
X158840849Y-96883162D01*
X158990000Y-96913366D01*
X159394100Y-96913366D01*
X159393892Y-97151973D01*
X159488994Y-97382137D01*
X159664937Y-97558387D01*
X159894935Y-97653891D01*
X160143973Y-97654108D01*
X160374137Y-97559006D01*
X160550387Y-97383063D01*
X160645891Y-97153065D01*
X160646100Y-96913366D01*
X160990000Y-96913366D01*
X161129337Y-96887148D01*
X161257310Y-96804800D01*
X161289605Y-96757534D01*
X161315200Y-96797310D01*
X161440849Y-96883162D01*
X161590000Y-96913366D01*
X161934100Y-96913366D01*
X161933892Y-97151973D01*
X162028994Y-97382137D01*
X162204937Y-97558387D01*
X162434935Y-97653891D01*
X162683973Y-97654108D01*
X162914137Y-97559006D01*
X163090387Y-97383063D01*
X163185891Y-97153065D01*
X163186100Y-96913366D01*
X163590000Y-96913366D01*
X163729337Y-96887148D01*
X163857310Y-96804800D01*
X163929225Y-96699548D01*
X163993658Y-96763981D01*
X164095100Y-96806000D01*
X164957000Y-96806000D01*
X165026000Y-96737000D01*
X165026000Y-92604000D01*
X165174000Y-92604000D01*
X165174000Y-96737000D01*
X165243000Y-96806000D01*
X166104900Y-96806000D01*
X166206342Y-96763981D01*
X166283982Y-96686341D01*
X166326000Y-96584900D01*
X166326000Y-92673000D01*
X166257000Y-92604000D01*
X165174000Y-92604000D01*
X165026000Y-92604000D01*
X165006000Y-92604000D01*
X165006000Y-92456000D01*
X165026000Y-92456000D01*
X165026000Y-88323000D01*
X165174000Y-88323000D01*
X165174000Y-92456000D01*
X166257000Y-92456000D01*
X166326000Y-92387000D01*
X166326000Y-88475100D01*
X166283982Y-88373659D01*
X166206342Y-88296019D01*
X166104900Y-88254000D01*
X165243000Y-88254000D01*
X165174000Y-88323000D01*
X165026000Y-88323000D01*
X164957000Y-88254000D01*
X164095100Y-88254000D01*
X163993658Y-88296019D01*
X163916018Y-88373659D01*
X163874000Y-88475100D01*
X163874000Y-88776987D01*
X163864800Y-88762690D01*
X163739151Y-88676838D01*
X163590000Y-88646634D01*
X161590000Y-88646634D01*
X161450663Y-88672852D01*
X161322690Y-88755200D01*
X161290395Y-88802466D01*
X161264800Y-88762690D01*
X161139151Y-88676838D01*
X160990000Y-88646634D01*
X158990000Y-88646634D01*
X158850663Y-88672852D01*
X158813366Y-88696852D01*
X158813366Y-88530000D01*
X158787148Y-88390663D01*
X158704800Y-88262690D01*
X158579151Y-88176838D01*
X158430000Y-88146634D01*
X156530000Y-88146634D01*
X156390663Y-88172852D01*
X156262690Y-88255200D01*
X156176838Y-88380849D01*
X156146634Y-88530000D01*
X156146634Y-96530000D01*
X156172852Y-96669337D01*
X156255200Y-96797310D01*
X156380849Y-96883162D01*
X156530000Y-96913366D01*
X156942681Y-96913366D01*
X156781048Y-97075000D01*
X156464000Y-97075000D01*
X156287583Y-97110092D01*
X156138023Y-97210024D01*
X155645000Y-97703048D01*
X155645000Y-88436419D01*
X155676837Y-88276367D01*
X155742337Y-88178338D01*
X155840368Y-88112836D01*
X156000419Y-88081000D01*
X166579581Y-88081000D01*
X166739633Y-88112837D01*
M02*
