M48
;DRILL file {KiCad 4.0.2-stable} date 2016 June 28, Tuesday 15:24:46
;FORMAT={3:3/ absolute / metric / suppress leading zeros}
FMAT,2
METRIC,TZ
T1C0.300
T2C1.016
T3C2.700
%
G90
G05
M71
T1
X159512Y-102870
X159512Y-103632
X160274Y-101600
X160274Y-102870
X161925Y-104521
X162052Y-98552
X162052Y-100711
X162306Y-101600
X162306Y-102870
X162890Y-105116
X162941Y-101346
T2
X156210Y-98806
X156210Y-101346
X156210Y-103886
X156210Y-106426
X166370Y-98806
X166370Y-101346
X166370Y-103886
X166370Y-106426
T3
X163068Y-108585
T0
M30
