G04 #@! TF.FileFunction,Profile,NP*
%FSLAX46Y46*%
G04 Gerber Fmt 4.6, Leading zero omitted, Abs format (unit mm)*
G04 Created by KiCad (PCBNEW 4.0.2-stable) date 2016 June 28, Tuesday 15:24:32*
%MOMM*%
G01*
G04 APERTURE LIST*
%ADD10C,0.100000*%
%ADD11C,0.150000*%
G04 APERTURE END LIST*
D10*
D11*
X167894000Y-97790000D02*
G75*
G03X167386000Y-97282000I-508000J0D01*
G01*
X167386000Y-88392000D02*
X167386000Y-88900000D01*
X167386000Y-96901000D02*
X167386000Y-88900000D01*
X167386000Y-96901000D02*
X167386000Y-97282000D01*
X166370000Y-107950000D02*
G75*
G03X165862000Y-108458000I0J-508000D01*
G01*
X167894000Y-106426000D02*
X167894000Y-97790000D01*
X154686000Y-97790000D02*
X154686000Y-106426000D01*
X155194000Y-96901000D02*
X155194000Y-97282000D01*
X155194000Y-97282000D02*
G75*
G03X154686000Y-97790000I0J-508000D01*
G01*
X155194000Y-88392000D02*
X155194000Y-96901000D01*
X165862000Y-86868000D02*
X156718000Y-86868000D01*
X156718000Y-86868000D02*
G75*
G03X155194000Y-88392000I0J-1524000D01*
G01*
X159766000Y-107950000D02*
X156210000Y-107950000D01*
X154686000Y-106426000D02*
G75*
G03X156210000Y-107950000I1524000J0D01*
G01*
X160274000Y-108458000D02*
X160274000Y-108585000D01*
X165862000Y-108458000D02*
X165862000Y-108585000D01*
X160274000Y-108458000D02*
G75*
G03X159766000Y-107950000I-508000J0D01*
G01*
X160274000Y-108585000D02*
G75*
G03X163068000Y-111379000I2794000J0D01*
G01*
X163068000Y-111379000D02*
G75*
G03X165862000Y-108585000I0J2794000D01*
G01*
X167386000Y-88392000D02*
G75*
G03X165862000Y-86868000I-1524000J0D01*
G01*
X166370000Y-107950000D02*
G75*
G03X167894000Y-106426000I0J1524000D01*
G01*
M02*
